<svg xmlns="http://www.w3.org/2000/svg" xmlns:xlink="http://www.w3.org/1999/xlink" width="1157" height="757" viewBox="0 0 1157 757">
  <defs>
    <clipPath id="clip-path">
      <rect id="Rectangle_2" data-name="Rectangle 2" width="757" height="757" transform="translate(0 0)" fill="none"/>
    </clipPath>
    <linearGradient id="linear-gradient" x1="0.516" y1="0.914" x2="0.516" y2="0.276" gradientUnits="objectBoundingBox">
      <stop offset="0" stop-color="#fff"/>
      <stop offset="0.111" stop-color="#fff" stop-opacity="0.98"/>
      <stop offset="0.235" stop-color="#fff" stop-opacity="0.929"/>
      <stop offset="0.365" stop-color="#fff" stop-opacity="0.843"/>
      <stop offset="0.5" stop-color="#fff" stop-opacity="0.718"/>
      <stop offset="0.638" stop-color="#fff" stop-opacity="0.561"/>
      <stop offset="0.779" stop-color="#fff" stop-opacity="0.365"/>
      <stop offset="0.92" stop-color="#fff" stop-opacity="0.141"/>
      <stop offset="1" stop-color="#fff" stop-opacity="0"/>
    </linearGradient>
    <linearGradient id="linear-gradient-2" x1="-5.52" y1="5.715" x2="-5.52" y2="4.882" xlink:href="#linear-gradient"/>
    <linearGradient id="linear-gradient-3" x1="-4.526" y1="59.455" x2="-4.526" y2="55.363" xlink:href="#linear-gradient"/>
    <linearGradient id="linear-gradient-4" x1="10.263" y1="28.932" x2="10.263" y2="24.84" xlink:href="#linear-gradient"/>
    <linearGradient id="linear-gradient-5" x1="8.266" y1="1.339" x2="8.266" y2="0.498" xlink:href="#linear-gradient"/>
    <clipPath id="clip-path-2">
      <path id="Path_54" data-name="Path 54" d="M240.981,294.787c43.272-13.488,31.47-58.165,31.47-58.165l19.95-2.434v-.377l1.545.188,1.545-.188v.377l19.952,2.434s-11.8,44.677,31.471,58.165,53.108,26.976,56.48,80.364H184.5C187.873,321.763,197.707,308.275,240.981,294.787Z" transform="translate(-184.501 -233.812)" fill="none"/>
    </clipPath>
    <linearGradient id="linear-gradient-6" x1="0.467" y1="1.034" x2="0.546" y2="-0.237" gradientUnits="objectBoundingBox">
      <stop offset="0" stop-color="#fff" stop-opacity="0"/>
      <stop offset="0.944"/>
    </linearGradient>
    <linearGradient id="linear-gradient-7" x1="0.497" y1="-0.166" x2="0.502" y2="0.963" xlink:href="#linear-gradient-6"/>
  </defs>
  <g id="banner-img" transform="translate(-872 144)">
    <g id="undraw_maker_launch_crhe" transform="translate(872.001 -144)">
      <path id="Path_125" data-name="Path 125" d="M38.48,470.82c20.16-32.93,65.75-27.19,98.08-10s64.59,42.85,100.17,37.92c30-4.16,54.6-30.32,67.89-60.5s17.19-64.21,20.93-97.54q7.05-62.81,14.09-125.7c1.72-15.33,3.75-31.51,12.37-43.64,11.39-16,32.27-20.92,50.13-16.11s33.09,17.71,46.12,32.1C490,233.43,513.65,295.72,550.14,347c7.43,10.44,15.82,20.76,26.92,25.8,16,7.25,34.37,2.12,50-5.95,51-26.29,85.26-79.94,118.93-130,16.38-24.33,36.35-50.35,63.6-53C838.26,181,863.15,205.43,880,231.3c54.08,83.24,65.67,196.88,131,269.48,8.11,9,17.06,17.32,27.37,22.91a70.646,70.646,0,0,0,10.6,4.65c57,19.73,76,98.93,33.84,145.89-.91,1-1.84,2-2.78,3-6.26,6.61-13.35,12.86-21.81,14.83-7.87,1.82-16-.28-23.8-2.55-49.86-14.55-99.12-36.79-150.67-35.71-50.16,1-97.74,24.17-147.34,32.51-33.35,5.61-67.28,4.49-101,3.28q-168.46-6.06-336.85-14.1c-55.72-2.56-111.46-5-167.17-7.85-42.92-2.23-70.26-7.14-75.24-56.95C51.79,567.07,12.63,513.06,38.48,470.82Z" transform="translate(-29.72 -56.36)" fill="#ff8604" opacity="0.1"/>
      <path id="Path_126" data-name="Path 126" d="M178.46,643.13s13.2-3,21.85,5.87c0,0-5.56,5-18.64-.54Z" transform="translate(-29.72 -56.36)" fill="#ff8604"/>
      <path id="Path_127" data-name="Path 127" d="M177,643s-7.82,11.08-2.86,22.45c0,0,6.76-3.25,6.57-17.45Z" transform="translate(-29.72 -56.36)" fill="#ff8604"/>
      <path id="Path_128" data-name="Path 128" d="M168.2,626.3s4.69-10.15,27,2.12c0,0-2.4,6.78-11.88,6.88S171,631.29,168.2,626.3Z" transform="translate(-29.72 -56.36)" fill="#ff8604"/>
      <path id="Path_129" data-name="Path 129" d="M166.78,625.68s-11.17-.52-10.54,24.92c0,0,7.13,1,11.58-7.38S169.91,630.51,166.78,625.68Z" transform="translate(-29.72 -56.36)" fill="#ff8604"/>
      <path id="Path_130" data-name="Path 130" d="M159,605.88s5-17.68,28.47-6.88c0,0-4.1,16.19-25.8,12.64Z" transform="translate(-29.72 -56.36)" fill="#ff8604"/>
      <path id="Path_131" data-name="Path 131" d="M150.29,580.54s10.58-18.24,32.49-3.44c0,0-6.19,16.87-30.29,9.55Z" transform="translate(-29.72 -56.36)" fill="#ff8604"/>
      <path id="Path_132" data-name="Path 132" d="M146.15,556.14s12.63-16.95,34.36-2.31c0,0-12.06,14.94-34.09,6.4Z" transform="translate(-29.72 -56.36)" fill="#ff8604"/>
      <path id="Path_133" data-name="Path 133" d="M142.41,532.42s12.76-17.66,33.59-3.15c0,0-14.68,15.83-33.33,7.07Z" transform="translate(-29.72 -56.36)" fill="#ff8604"/>
      <path id="Path_134" data-name="Path 134" d="M142.23,511.16s13.15-22.53,32.65-9.17c0,0-14.42,19.57-32.37,13.26Z" transform="translate(-29.72 -56.36)" fill="#ff8604"/>
      <path id="Path_135" data-name="Path 135" d="M144,486.18s14-22.4,33.09-7.18c0,0-17.1,19.75-32.87,11.15Z" transform="translate(-29.72 -56.36)" fill="#ff8604"/>
      <path id="Path_136" data-name="Path 136" d="M147.63,463.72s17-21.31,33.55-14.37c0,0-17.68,22.6-34,19.76Z" transform="translate(-29.72 -56.36)" fill="#ff8604"/>
      <path id="Path_137" data-name="Path 137" d="M152.63,442.32s19.54-26,32.37-18.62c0,0-14.31,20.09-33.58,23.35Z" transform="translate(-29.72 -56.36)" fill="#ff8604"/>
      <path id="Path_138" data-name="Path 138" d="M160.25,417.38s17.17-21.32,31-17.24c0,0-14.45,21.89-33.1,23.68Z" transform="translate(-29.72 -56.36)" fill="#ff8604"/>
      <path id="Path_139" data-name="Path 139" d="M167.1,394.07s19.18-20.6,28.31-17.82c0,0-13.35,22.36-28.92,22.15Z" transform="translate(-29.72 -56.36)" fill="#ff8604"/>
      <path id="Path_140" data-name="Path 140" d="M173.87,372.51s16.09-24.15,25.82-23c0,0-9.31,21.19-25.66,25.33Z" transform="translate(-29.72 -56.36)" fill="#ff8604"/>
      <path id="Path_141" data-name="Path 141" d="M180.86,343.6s14.39-18.66,22.81-19.18c0,0-10.71,24.34-23.07,25Z" transform="translate(-29.72 -56.36)" fill="#ff8604"/>
      <path id="Path_142" data-name="Path 142" d="M184.86,324.39l12.58-37.69s3,33.1-14,44.62Z" transform="translate(-29.72 -56.36)" fill="#ff8604"/>
      <path id="Path_143" data-name="Path 143" d="M188.25,283.53s.44-30.79-1.33-33.17c0,0,12.47,24.74,2.14,46.71Z" transform="translate(-29.72 -56.36)" fill="#ff8604"/>
      <path id="Path_144" data-name="Path 144" d="M158.36,605.51s-16.26-8.62-24.77,15.73c0,0,14.5,8.28,27-9.81Z" transform="translate(-29.72 -56.36)" fill="#ff8604"/>
      <path id="Path_145" data-name="Path 145" d="M149.72,579.59s-19.72-7.45-27.35,17.88c0,0,15.47,9.15,29.51-11.76Z" transform="translate(-29.72 -56.36)" fill="#ff8604"/>
      <path id="Path_146" data-name="Path 146" d="M145.36,557.67S130.57,542.56,111,560c0,0,13.94,13.19,34.63,1.79Z" transform="translate(-29.72 -56.36)" fill="#ff8604"/>
      <path id="Path_147" data-name="Path 147" d="M141.94,532.46s-15-15.81-33.71,1.36c0,0,16.66,13.73,34,2.55Z" transform="translate(-29.72 -56.36)" fill="#ff8604"/>
      <path id="Path_148" data-name="Path 148" d="M142.27,511.76s-11.36-23.47-31.83-11.67c0,0,12.86,20.63,31.24,15.74Z" transform="translate(-29.72 -56.36)" fill="#ff8604"/>
      <path id="Path_149" data-name="Path 149" d="M145.17,486s-11.33-23.9-32.06-11.07c0,0,14.66,21.61,31.34,14.93Z" transform="translate(-29.72 -56.36)" fill="#ff8604"/>
      <path id="Path_150" data-name="Path 150" d="M149.7,463.7s-5.64-26.65-23.55-27.87c0,0,5.68,28.13,21.51,32.88Z" transform="translate(-29.72 -56.36)" fill="#ff8604"/>
      <path id="Path_151" data-name="Path 151" d="M153.09,442.34s-3.67-32.31-18.46-32.46c0,0,2.15,24.57,17.11,37.15Z" transform="translate(-29.72 -56.36)" fill="#ff8604"/>
      <path id="Path_152" data-name="Path 152" d="M161.72,416.35s-6.21-26.66-20.47-29c0,0,3.5,26,19.53,35.72Z" transform="translate(-29.72 -56.36)" fill="#ff8604"/>
      <path id="Path_153" data-name="Path 153" d="M168.78,394.15s-2-28.07-10.9-31.62c0,0-3.61,25.78,8.65,35.38Z" transform="translate(-29.72 -56.36)" fill="#ff8604"/>
      <path id="Path_154" data-name="Path 154" d="M174.51,372.16s-3.15-28.85-12.31-32.32c0,0-1.5,23.09,11.1,34.3Z" transform="translate(-29.72 -56.36)" fill="#ff8604"/>
      <path id="Path_155" data-name="Path 155" d="M182.26,345.82s-1.64-23.51-8.35-28.61c0,0-4.58,26.19,5.35,33.56Z" transform="translate(-29.72 -56.36)" fill="#ff8604"/>
      <path id="Path_156" data-name="Path 156" d="M184,323.28l-8.8-38.74s-6.23,32.64,9.57,45.78Z" transform="translate(-29.72 -56.36)" fill="#ff8604"/>
      <path id="Path_157" data-name="Path 157" d="M182.63,284.28S165,259,165.14,256.06c0,0,3.54,27.48,24.41,39.89Z" transform="translate(-29.72 -56.36)" fill="#ff8604"/>
      <path id="Path_158" data-name="Path 158" d="M184,276.39s-17.46-36.39-24.43-39c0,0,22.09,9.43,25.61,37.8Z" transform="translate(-29.72 -56.36)" fill="#ff8604"/>
      <path id="Path_159" data-name="Path 159" d="M180.54,349.61l-1-.25c9.85-42,11.24-68.48,3.9-74.56l.68-.82C191.86,280.42,190.64,306.58,180.54,349.61Z" transform="translate(-29.72 -56.36)" fill="#444053"/>
      <path id="Path_160" data-name="Path 160" d="M152.26,448.27l-1.55-.43c1.09-3.86,2.27-7.79,3.53-11.66,11-33.72,20.14-65,25.75-88.94l1.27-.75c-5.62,24-14.51,56.43-25.49,90.18C154.52,440.53,153.34,444.43,152.26,448.27Z" transform="translate(-29.72 -56.36)" fill="#444053"/>
      <path id="Path_161" data-name="Path 161" d="M199.31,672.67c-.22-.21-22.22-21.87-39.12-60.24a232.37,232.37,0,0,1-18.61-70.77c-3-30.53,1.1-65.13,10-96.9l1.28,1.32c-20,71.31-6.19,130.34,9.23,165.4,16.73,38,38.48,59.45,38.7,59.66Z" transform="translate(-29.72 -56.36)" fill="#444053"/>
      <path id="Path_162" data-name="Path 162" d="M223.53,558.46s8-1.83,13.22,3.55c0,0-3.37,3-11.27-.33Z" transform="translate(-29.72 -56.36)" fill="#ff8604"/>
      <path id="Path_163" data-name="Path 163" d="M222.66,558.39s-4.72,6.7-1.72,13.57c0,0,4.08-2,4-10.55Z" transform="translate(-29.72 -56.36)" fill="#ff8604"/>
      <path id="Path_164" data-name="Path 164" d="M217.34,548.28s2.83-6.13,16.3,1.29c0,0-1.45,4.09-7.18,4.15S219.05,551.3,217.34,548.28Z" transform="translate(-29.72 -56.36)" fill="#ff8604"/>
      <path id="Path_165" data-name="Path 165" d="M216.48,547.91s-6.76-.31-6.38,15.06c0,0,4.31.6,7-4.46S218.37,550.83,216.48,547.91Z" transform="translate(-29.72 -56.36)" fill="#ff8604"/>
      <path id="Path_166" data-name="Path 166" d="M211.75,535.94s3.07-10.69,17.23-4.18c0,0-2.47,9.79-15.59,7.64Z" transform="translate(-29.72 -56.36)" fill="#ff8604"/>
      <path id="Path_167" data-name="Path 167" d="M206.51,520.62s6.39-11,19.64-2.08c0,0-3.75,10.2-18.31,5.77Z" transform="translate(-29.72 -56.36)" fill="#ff8604"/>
      <path id="Path_168" data-name="Path 168" d="M204,505.87s7.64-10.25,20.77-1.4c0,0-7.28,9-20.6,3.87Z" transform="translate(-29.72 -56.36)" fill="#ff8604"/>
      <path id="Path_169" data-name="Path 169" d="M201.74,491.53s7.72-10.68,20.31-1.9c0,0-8.87,9.57-20.15,4.27Z" transform="translate(-29.72 -56.36)" fill="#ff8604"/>
      <path id="Path_170" data-name="Path 170" d="M201.64,478.67s8-13.61,19.73-5.54c0,0-8.72,11.83-19.57,8Z" transform="translate(-29.72 -56.36)" fill="#ff8604"/>
      <path id="Path_171" data-name="Path 171" d="M202.68,463.58s8.49-13.55,20-4.38c0,0-10.34,11.94-19.88,6.74Z" transform="translate(-29.72 -56.36)" fill="#ff8604"/>
      <path id="Path_172" data-name="Path 172" d="M204.9,450s10.27-12.88,20.28-8.68c0,0-10.69,13.66-20.53,11.94Z" transform="translate(-29.72 -56.36)" fill="#ff8604"/>
      <path id="Path_173" data-name="Path 173" d="M207.92,437.06s11.81-15.71,19.57-11.26c0,0-8.65,12.15-20.3,14.12Z" transform="translate(-29.72 -56.36)" fill="#ff8604"/>
      <path id="Path_174" data-name="Path 174" d="M212.53,422s10.38-12.89,18.76-10.42c0,0-8.73,13.23-20,14.31Z" transform="translate(-29.72 -56.36)" fill="#ff8604"/>
      <path id="Path_175" data-name="Path 175" d="M216.67,407.89s11.59-12.45,17.11-10.77c0,0-8.06,13.51-17.48,13.39Z" transform="translate(-29.72 -56.36)" fill="#ff8604"/>
      <path id="Path_176" data-name="Path 176" d="M220.76,394.86s9.73-14.6,15.61-13.92c0,0-5.62,12.81-15.51,15.32Z" transform="translate(-29.72 -56.36)" fill="#ff8604"/>
      <path id="Path_177" data-name="Path 177" d="M225,377.38s8.7-11.28,13.79-11.6c0,0-6.48,14.72-13.95,15.09Z" transform="translate(-29.72 -56.36)" fill="#ff8604"/>
      <path id="Path_178" data-name="Path 178" d="M227.41,365.76,235,343s1.8,20-8.49,27Z" transform="translate(-29.72 -56.36)" fill="#ff8604"/>
      <path id="Path_179" data-name="Path 179" d="M229.46,341.06s.26-18.61-.81-20.05c0,0,7.54,14.95,1.29,28.24Z" transform="translate(-29.72 -56.36)" fill="#ff8604"/>
      <path id="Path_180" data-name="Path 180" d="M211.38,535.72s-9.82-5.22-15,9.5c0,0,8.77,5,16.33-5.92Z" transform="translate(-29.72 -56.36)" fill="#ff8604"/>
      <path id="Path_181" data-name="Path 181" d="M206.17,520s-11.93-4.5-16.54,10.81c0,0,9.35,5.53,17.84-7.1Z" transform="translate(-29.72 -56.36)" fill="#ff8604"/>
      <path id="Path_182" data-name="Path 182" d="M203.52,506.79s-8.93-9.13-20.77,1.4c0,0,8.43,8,20.94,1.08Z" transform="translate(-29.72 -56.36)" fill="#ff8604"/>
      <path id="Path_183" data-name="Path 183" d="M201.46,491.55s-9.07-9.55-20.38.83c0,0,10.07,8.29,20.54,1.54Z" transform="translate(-29.72 -56.36)" fill="#ff8604"/>
      <path id="Path_184" data-name="Path 184" d="M201.66,479s-6.87-14.19-19.25-7.06c0,0,7.78,12.47,18.89,9.52Z" transform="translate(-29.72 -56.36)" fill="#ff8604"/>
      <path id="Path_185" data-name="Path 185" d="M203.41,463.45S196.56,449,184,456.76c0,0,8.86,13.07,18.95,9Z" transform="translate(-29.72 -56.36)" fill="#ff8604"/>
      <path id="Path_186" data-name="Path 186" d="M206.15,450s-3.41-16.12-14.24-16.85c0,0,3.43,17,13,19.87Z" transform="translate(-29.72 -56.36)" fill="#ff8604"/>
      <path id="Path_187" data-name="Path 187" d="M208.2,437.07S206,417.54,197,417.44c0,0,1.3,14.86,10.34,22.47Z" transform="translate(-29.72 -56.36)" fill="#ff8604"/>
      <path id="Path_188" data-name="Path 188" d="M213.41,421.36s-3.75-16.12-12.37-17.54c0,0,2.12,15.71,11.81,21.59Z" transform="translate(-29.72 -56.36)" fill="#ff8604"/>
      <path id="Path_189" data-name="Path 189" d="M217.68,407.94s-1.23-17-6.58-19.12c0,0-2.19,15.59,5.22,21.39Z" transform="translate(-29.72 -56.36)" fill="#ff8604"/>
      <path id="Path_190" data-name="Path 190" d="M221.15,394.64s-1.9-17.44-7.44-19.54c0,0-.91,14,6.71,20.74Z" transform="translate(-29.72 -56.36)" fill="#ff8604"/>
      <path id="Path_191" data-name="Path 191" d="M225.83,378.72s-1-14.21-5-17.3c0,0-2.77,15.84,3.23,20.29Z" transform="translate(-29.72 -56.36)" fill="#ff8604"/>
      <path id="Path_192" data-name="Path 192" d="M226.91,365.09l-5.32-23.42s-3.77,19.74,5.78,27.68Z" transform="translate(-29.72 -56.36)" fill="#ff8604"/>
      <path id="Path_193" data-name="Path 193" d="M226.06,341.52s-10.65-15.27-10.57-17.06c0,0,2.13,16.61,14.75,24.11Z" transform="translate(-29.72 -56.36)" fill="#ff8604"/>
      <path id="Path_194" data-name="Path 194" d="M226.86,336.74s-10.56-22-14.77-23.55c0,0,13.36,5.7,15.48,22.86Z" transform="translate(-29.72 -56.36)" fill="#ff8604"/>
      <path id="Path_195" data-name="Path 195" d="M224.79,381l-.63-.15c6-25.39,6.8-41.4,2.36-45.07l.41-.5C231.64,339.18,230.9,355,224.79,381Z" transform="translate(-29.72 -56.36)" fill="#444053"/>
      <path id="Path_196" data-name="Path 196" d="M207.7,440.66l-.94-.27c.66-2.33,1.38-4.7,2.14-7,6.63-20.39,12.17-39.3,15.56-53.77l.77-.46c-3.4,14.5-8.77,34.12-15.41,54.53C209.06,436,208.35,438.33,207.7,440.66Z" transform="translate(-29.72 -56.36)" fill="#444053"/>
      <path id="Path_197" data-name="Path 197" d="M236.14,576.32c-.13-.13-13.43-13.22-23.65-36.42a140.72,140.72,0,0,1-11.25-42.78c-1.83-18.46.67-39.38,6.06-58.59l.77.8c-12.09,43.11-3.74,78.8,5.58,100,10.12,23,23.26,35.93,23.4,36.06Z" transform="translate(-29.72 -56.36)" fill="#444053"/>
      <path id="Path_198" data-name="Path 198" d="M266.22,626.32a38.24,38.24,0,0,0-7.5,2.14C204.78,650,205.68,791,205.68,791H189.8s-5-60.51-26.79-146.84c-19.63-77.67,60.88-147.28,77.23-160.48,1.84-1.47,2.86-2.25,2.86-2.25C324.19,511.23,266.22,626.32,266.22,626.32Z" transform="translate(-29.72 -56.36)" fill="#afc0e0"/>
      <path id="Path_199" data-name="Path 199" d="M249,483.88c-1.87-.86-3.8-1.68-5.85-2.43,0,0-1,.78-2.86,2.25-16.35,13.2-96.86,82.81-77.23,160.48C184.85,730.51,189.8,791,189.8,791h8.93s-4.95-60.51-26.79-146.84C152.39,566.85,232.12,497.5,249,483.88Z" transform="translate(-29.72 -56.36)" fill="#fff" opacity="0.2"/>
      <path id="Path_200" data-name="Path 200" d="M533.76,644.18C511.92,730.51,507,791,507,791H491.09s1-147.36-56.73-163.81a31.539,31.539,0,0,0-3.81-.89s-58-115.09,23.12-144.87c0,0,.82.61,2.3,1.8C471,495.26,553.61,565.61,533.76,644.18Z" transform="translate(-29.72 -56.36)" fill="#afc0e0"/>
      <path id="Path_201" data-name="Path 201" d="M266.22,626.32a38.24,38.24,0,0,0-7.5,2.14A979.218,979.218,0,0,1,240.24,483.7c1.84-1.47,2.86-2.25,2.86-2.25C324.19,511.23,266.22,626.32,266.22,626.32Z" transform="translate(-29.72 -56.36)" opacity="0.1"/>
      <path id="Path_202" data-name="Path 202" d="M456,483.25a900.994,900.994,0,0,1-21.61,144,31.537,31.537,0,0,0-3.81-.89s-58-115.09,23.12-144.87C453.67,481.45,454.49,482.06,456,483.25Z" transform="translate(-29.72 -56.36)" opacity="0.1"/>
      <path id="Path_203" data-name="Path 203" d="M426.31,648.14q-8.4,33.14-19.69,68s-35.72,37.21-122,0c0,0-8.62-24.3-18.1-65.61-20.87-90.83-45.9-263.92,7.43-441.71A661.747,661.747,0,0,1,341.13,56.36s45.56,52.31,79,152.43S474.85,456.86,426.31,648.14Z" transform="translate(-29.72 -56.36)" fill="#e3e8f4"/>
      <circle id="Ellipse_27" data-name="Ellipse 27" cx="71.63" cy="71.63" r="71.63" transform="translate(247.03 221.97)" fill="#afc0e0"/>
      <path id="Path_204" data-name="Path 204" d="M399.18,350a50.8,50.8,0,0,1-83,39.29,51.33,51.33,0,0,1-9.52-10.33,50,50,0,0,1-3.28-5.39A50.7,50.7,0,0,1,297.59,350v-1.21a50.86,50.86,0,0,1,37-47.72,52.531,52.531,0,0,1,12.24-1.86h1.52A50.8,50.8,0,0,1,399.18,350Z" transform="translate(-29.72 -56.36)" fill="#ff8604"/>
      <path id="Path_205" data-name="Path 205" d="M420.12,208.79c-81.27,38.91-146.22,0-146.22,0A661.749,661.749,0,0,1,341.13,56.36S386.69,108.67,420.12,208.79Z" transform="translate(-29.72 -56.36)" fill="#afc0e0"/>
      <path id="Path_206" data-name="Path 206" d="M426.31,648.14q-5.7,22.44-12.7,45.65-3.32,11.07-7,22.32s-35.72,37.21-122,0c0,0-2.8-7.89-7-22.32-3.14-10.9-7.05-25.51-11.13-43.29,0,0,32.12,13.71,77.71,13.71a214.108,214.108,0,0,0,82.12-16.07Z" transform="translate(-29.72 -56.36)" fill="#afc0e0"/>
      <path id="Path_207" data-name="Path 207" d="M413.61,693.79q-3.32,11.07-7,22.32s-35.72,37.21-122,0c0,0-2.8-7.89-7-22.32C277.6,693.79,365.54,719.09,413.61,693.79Z" transform="translate(-29.72 -56.36)" fill="#e3e8f4"/>
      <path id="Path_208" data-name="Path 208" d="M334.62,301l-.11.08-36.9,47.64v1.21a50.7,50.7,0,0,0,5.79,23.57l43.48-74.36Z" transform="translate(-29.72 -56.36)" fill="#fff" opacity="0.2"/>
      <path id="Path_209" data-name="Path 209" d="M346.4,344l-30.22,45.25a51.329,51.329,0,0,1-9.52-10.33l36-38.64Z" transform="translate(-29.72 -56.36)" fill="#fff" opacity="0.2"/>
      <path id="Path_210" data-name="Path 210" d="M303.92,716.12s-8.62-24.31-18.1-65.61c-20.87-90.84-45.9-263.93,7.43-441.72A664.184,664.184,0,0,1,352.1,70.7c-6.77-9.49-11-14.33-11-14.33a661.683,661.683,0,0,0-67.2,152.42c-53.33,177.79-28.3,350.88-7.43,441.72,9.48,41.3,18.1,65.61,18.1,65.61,34.09,14.69,60.28,17.77,79.5,16.13C347.65,731,327.71,726.37,303.92,716.12Z" transform="translate(-29.72 -56.36)" fill="#fff" opacity="0.2"/>
      <g id="Group_40" data-name="Group 40" transform="translate(90 -20)">
        <path id="Path_211" data-name="Path 211" d="M966.7,785.29s46.74-58.16,43.64-116.41a113.05,113.05,0,0,1,18.54-69.06,190.185,190.185,0,0,1,22-27" transform="translate(-29.72 -56.36)" fill="none" stroke="#535461" stroke-miterlimit="10" stroke-width="2"/>
        <path id="Path_212" data-name="Path 212" d="M1049.11,536.14c-3.34,8.11,1.66,37.68,1.66,37.68s24.37-17.48,27.71-25.59a15.88,15.88,0,1,0-29.37-12.09Z" transform="translate(-29.72 -56.36)" fill="#ff8604"/>
        <path id="Path_213" data-name="Path 213" d="M1006.33,571.08c1.61,8.62,21.88,30.72,21.88,30.72s11-27.91,9.35-36.54a15.884,15.884,0,1,0-31.23,5.82Z" transform="translate(-29.72 -56.36)" fill="#ff8604"/>
        <path id="Path_214" data-name="Path 214" d="M975.79,648.3c5.74,6.63,34.4,15.48,34.4,15.48s-4.64-29.63-10.38-36.27a15.878,15.878,0,1,0-24,20.792Z" transform="translate(-29.72 -56.36)" fill="#ff8604"/>
        <path id="Path_215" data-name="Path 215" d="M965.84,711.93c4.53,7.51,31.28,21.07,31.28,21.07s.44-30-4.09-37.5a15.884,15.884,0,0,0-27.19,16.43Z" transform="translate(-29.72 -56.36)" fill="#ff8604"/>
        <path id="Path_216" data-name="Path 216" d="M1058.4,616.07c-8.14,3.25-37.66-2.05-37.66-2.05s17.72-24.19,25.87-27.45a15.884,15.884,0,0,1,11.79,29.5Z" transform="translate(-29.72 -56.36)" fill="#ff8604"/>
        <path id="Path_217" data-name="Path 217" d="M1045.82,690.34c-8.74.67-35.32-13.22-35.32-13.22s24.14-17.79,32.89-18.46a15.888,15.888,0,1,1,2.43,31.683Z" transform="translate(-29.72 -56.36)" fill="#ff8604"/>
        <path id="Path_218" data-name="Path 218" d="M1023.69,760.84c-8.51,2.14-37.05-7.06-37.05-7.06s20.79-21.61,29.3-23.74a15.88,15.88,0,0,1,7.75,30.8Z" transform="translate(-29.72 -56.36)" fill="#ff8604"/>
      </g>
    </g>
    <g id="Group_39" data-name="Group 39" transform="translate(-74 -96.757)">
      <g id="Group_19" data-name="Group 19" transform="translate(1346 -47.243)" clip-path="url(#clip-path)">
        <g id="Group_3" data-name="Group 3" transform="translate(-238.041 -6.191)" opacity="0.3" style="mix-blend-mode: overlay;isolation: isolate">
          <g id="Group_1" data-name="Group 1">
            <path id="Path_1" data-name="Path 1" d="M267.518,612.126,215.881-4.031l96.048-.245Z" transform="translate(348.883 4.276)" fill="url(#linear-gradient)"/>
            <path id="Path_2" data-name="Path 2" d="M250,563.205,649.176,91l68.089,67.743Z" transform="translate(366.401 53.196)" fill="url(#linear-gradient-2)"/>
            <path id="Path_3" data-name="Path 3" d="M250,420.527,866.157,368.89l.245,96.048Z" transform="translate(366.401 195.874)" fill="url(#linear-gradient-3)"/>
            <path id="Path_4" data-name="Path 4" d="M459.116,418.076-157.04,469.713l-.245-96.048Z" transform="translate(157.285 198.325)" fill="url(#linear-gradient-4)"/>
            <path id="Path_5" data-name="Path 5" d="M410.2,561.531l-472.2-399.176L5.738,94.266Z" transform="translate(206.205 54.871)" fill="url(#linear-gradient-5)"/>
          </g>
        </g>
        <g id="Group_18" data-name="Group 18" transform="translate(149.344 220.066)">
          <g id="Group_17" data-name="Group 17">
            <ellipse id="Ellipse_1" data-name="Ellipse 1" cx="226.634" cy="46.018" rx="226.634" ry="46.018" transform="translate(0 417.648)" opacity="0.19"/>
            <path id="Path_24" data-name="Path 24" d="M259.277,351.609c-17.768,12.692-36.8,15.23-57.108,10.154a101.646,101.646,0,0,1-28.634-10.225c32.029,53.055,95.321,56.83,95.321,56.83,10.724-29.564,10.948-53.813,4.861-73.649A40.554,40.554,0,0,1,259.277,351.609Z" transform="translate(-60.244 -47.928)" fill="#ef4864"/>
            <g id="Group_9" data-name="Group 9" transform="translate(15.255 200.206)">
              <g id="Group_5" data-name="Group 5" transform="translate(233.109 116.227)">
                <path id="Path_25" data-name="Path 25" d="M262.784,409.083s69.468-108.533,189.649-20.059C452.433,389.024,352.826,513.273,262.784,409.083Z" transform="translate(-262.784 -354.304)" fill="#ff5970"/>
                <g id="Group_4" data-name="Group 4" transform="translate(0 6.197)">
                  <path id="Path_26" data-name="Path 26" d="M324.867,358.8c.117-.133.235-.266.353-.4-40.515,14.337-62.435,48.581-62.435,48.581,62.153,71.919,128.859,35,164.222,5.221-27.006,10.388-61,12.123-85.735,4.533C316.487,409.131,307.757,378.277,324.867,358.8Z" transform="translate(-262.784 -358.399)" fill="#ef4864"/>
                </g>
              </g>
              <g id="Group_7" data-name="Group 7" transform="translate(238.017)">
                <path id="Path_27" data-name="Path 27" d="M271.955,439.249S229.266,317.663,373,277.508C373,277.508,409.5,432.516,271.955,439.249Z" transform="translate(-266.027 -277.508)" fill="#ff5970"/>
                <g id="Group_6" data-name="Group 6" transform="translate(0.008 44.344)">
                  <path id="Path_28" data-name="Path 28" d="M309.819,364.959c-13.96,3.222-31.6,3.67-41.078-7.323-7.6,35.737,3.212,66.57,3.212,66.57,89.163-4.365,105.178-71.033,105.419-117.4C365.629,334.333,342.369,358.932,309.819,364.959Z" transform="translate(-266.032 -306.808)" fill="#ef4864"/>
                </g>
              </g>
              <path id="Path_29" data-name="Path 29" d="M274.648,437.542s-128.636-7.632-110.1-155.712C164.544,281.83,321.61,308.091,274.648,437.542Z" transform="translate(-81.053 -275.289)" fill="#ff5970"/>
              <g id="Group_8" data-name="Group 8" transform="translate(0 116.331)">
                <path id="Path_30" data-name="Path 30" d="M298.179,414.743s-91.628,90.608-189.421-22.12C108.758,392.622,233.241,293.309,298.179,414.743Z" transform="translate(-108.758 -354.373)" fill="#ff5970"/>
                <path id="Path_31" data-name="Path 31" d="M287.061,414.742c-25.927-48.485-61.347-61.777-94.546-60.253,19.157,53.72-25.279,86.3-62.1,68.96C214.959,486.034,287.061,414.742,287.061,414.742Z" transform="translate(-97.64 -354.373)" fill="#ef4864"/>
              </g>
            </g>
            <g id="Group_12" data-name="Group 12" transform="translate(66.777)">
              <path id="Path_32" data-name="Path 32" d="M289.272,201.809a3.238,3.238,0,1,0,3.239-3.239A3.238,3.238,0,0,0,289.272,201.809Z" transform="translate(-67.598 -117.832)" fill="#5c2c2c"/>
              <path id="Path_33" data-name="Path 33" d="M290.045,197.679a3.237,3.237,0,1,0,3.237-3.239A3.238,3.238,0,0,0,290.045,197.679Z" transform="translate(-67.201 -119.952)" fill="#5c2c2c"/>
              <path id="Path_34" data-name="Path 34" d="M290.55,193.579a3.237,3.237,0,1,0,3.237-3.239A3.238,3.238,0,0,0,290.55,193.579Z" transform="translate(-66.941 -122.058)" fill="#5c2c2c"/>
              <path id="Path_35" data-name="Path 35" d="M290.788,189.449a3.237,3.237,0,1,0,3.237-3.239A3.237,3.237,0,0,0,290.788,189.449Z" transform="translate(-66.819 -124.178)" fill="#5c2c2c"/>
              <path id="Path_36" data-name="Path 36" d="M290.788,185.169a3.237,3.237,0,1,0,3.237-3.237A3.237,3.237,0,0,0,290.788,185.169Z" transform="translate(-66.819 -126.375)" fill="#5c2c2c"/>
              <path id="Path_37" data-name="Path 37" d="M290.075,180.89a3.237,3.237,0,1,0,3.237-3.237A3.237,3.237,0,0,0,290.075,180.89Z" transform="translate(-67.185 -128.572)" fill="#5c2c2c"/>
              <path id="Path_38" data-name="Path 38" d="M289.332,176.79a3.237,3.237,0,1,0,3.237-3.237A3.238,3.238,0,0,0,289.332,176.79Z" transform="translate(-67.567 -130.677)" fill="#5c2c2c"/>
              <path id="Path_39" data-name="Path 39" d="M288.582,172.809a3.237,3.237,0,1,0,3.237-3.237A3.238,3.238,0,0,0,288.582,172.809Z" transform="translate(-67.952 -132.721)" fill="#5c2c2c"/>
              <path id="Path_40" data-name="Path 40" d="M286.509,169.037a3.238,3.238,0,1,0,3.237-3.239A3.238,3.238,0,0,0,286.509,169.037Z" transform="translate(-69.016 -134.658)" fill="#5c2c2c"/>
              <path id="Path_41" data-name="Path 41" d="M284.578,165.351a3.237,3.237,0,1,0,3.237-3.237A3.237,3.237,0,0,0,284.578,165.351Z" transform="translate(-70.008 -136.55)" fill="#5c2c2c"/>
              <path id="Path_42" data-name="Path 42" d="M281.726,162.588a3.237,3.237,0,1,0,3.237-3.237A3.236,3.236,0,0,0,281.726,162.588Z" transform="translate(-71.472 -137.969)" fill="#5c2c2c"/>
              <path id="Path_43" data-name="Path 43" d="M278.873,160.27a3.238,3.238,0,1,0,3.237-3.237A3.238,3.238,0,0,0,278.873,160.27Z" transform="translate(-72.937 -139.159)" fill="#5c2c2c"/>
              <path id="Path_44" data-name="Path 44" d="M275.753,158.577a3.238,3.238,0,1,0,3.239-3.237A3.238,3.238,0,0,0,275.753,158.577Z" transform="translate(-74.539 -140.028)" fill="#5c2c2c"/>
              <path id="Path_45" data-name="Path 45" d="M272.455,157.24A3.238,3.238,0,1,0,275.694,154,3.238,3.238,0,0,0,272.455,157.24Z" transform="translate(-76.232 -140.714)" fill="#5c2c2c"/>
              <path id="Path_46" data-name="Path 46" d="M327.525,262.276,210.105,350.2s35.159,25.544,82.472-25.426S327.525,262.276,327.525,262.276Z" transform="translate(-108.245 -85.123)" fill="#d90"/>
              <path id="Path_47" data-name="Path 47" d="M294.036,348.464s10.974,8.324,32.049,4.431S363.5,329.849,363.5,329.849a41.23,41.23,0,0,1-30.193,1.052C317.128,324.978,294.528,325.631,294.036,348.464Z" transform="translate(-65.152 -51.508)" fill="#d90"/>
              <circle id="Ellipse_2" data-name="Ellipse 2" cx="19.14" cy="19.14" r="19.14" transform="translate(159.262)" fill="#5c2c2c"/>
              <path id="Path_48" data-name="Path 48" d="M246,210.211c-5.582-8.831-15.971-12.282-23.207-7.708s-8.575,15.44-2.994,24.27a29.3,29.3,0,0,0,7.537,7.879,3.306,3.306,0,0,1,.916,4.374,8.766,8.766,0,1,0,16.335,4.419,8.656,8.656,0,0,0-.49-2.882,2.314,2.314,0,0,1,1.02-2.7l.018-.011C252.368,233.274,251.579,219.04,246,210.211Z" transform="translate(-105.038 -116.85)" fill="#cc885a"/>
              <path id="Path_49" data-name="Path 49" d="M309.384,229.633c6.194-8.413,5.627-19.346-1.265-24.421s-17.5-2.37-23.7,6.042-7.988,22.553-1.1,27.629a10.213,10.213,0,0,0,5.834,1.868,2.156,2.156,0,0,1,2.078,2.049,8.276,8.276,0,0,0,.277,1.7,8.9,8.9,0,0,0,8.763,6.59,8.759,8.759,0,0,0,5.787-15.074,1.885,1.885,0,0,1,.044-2.732A26.736,26.736,0,0,0,309.384,229.633Z" transform="translate(-72.919 -115.736)" fill="#cc885a"/>
              <g id="Group_11" data-name="Group 11" transform="translate(63.11 134.075)">
                <g id="Group_10" data-name="Group 10" clip-path="url(#clip-path-2)">
                  <path id="Path_50" data-name="Path 50" d="M240.981,294.787c43.272-13.488,31.47-58.165,31.47-58.165l19.95-2.434v-.377l1.545.188,1.545-.188v.377l19.952,2.434s-11.8,44.677,31.471,58.165,53.108,26.976,56.48,80.364H184.5C187.873,321.763,197.707,308.275,240.981,294.787Z" transform="translate(-184.501 -233.812)" fill="#cc885a"/>
                  <path id="Path_51" data-name="Path 51" d="M240,273.681c-.611.21-1.2.437-1.831.636-26.64,8.3-40.6,16.621-48.183,34.232C210.622,304.187,229.208,292.395,240,273.681Z" transform="translate(-181.686 -213.342)" fill="#f9bb91" opacity="0.45"/>
                  <path id="Path_52" data-name="Path 52" d="M346.914,278.91c-10.458-3.258-17.692-8.342-22.661-14.175C298.561,318.848,246.935,356.16,185.8,343.9c-.521,4.73-.947,9.822-1.3,15.369H403.394C400.022,305.885,390.187,292.4,346.914,278.91Z" transform="translate(-184.501 -217.935)" fill="#ad683a" stroke="#ad683a" stroke-miterlimit="10" stroke-width="0.982" opacity="0.32"/>
                  <path id="Path_53" data-name="Path 53" d="M244.022,247.215a55.332,55.332,0,0,0-1.408-10.593l19.95-2.434v-.377l1.545.188,1.545-.188v.377l19.952,2.434a59.482,59.482,0,0,0-1.368,16.884C279.86,262.443,264.109,274.837,244.022,247.215Z" transform="translate(-154.663 -233.812)" fill="#ad683a" stroke="#ad683a" stroke-miterlimit="10" stroke-width="0.982"/>
                </g>
              </g>
              <path id="Path_55" data-name="Path 55" d="M319.4,191.589c.3.891,9.905,61.748-12.434,84.3s-60.975,9.2-70.389-13.908c-8.124-19.947-9.694-57.533,6.113-80.5S303.8,145.858,319.4,191.589Z" transform="translate(-97.736 -137.246)" fill="#cc885a"/>
              <path id="Path_56" data-name="Path 56" d="M319.4,191.589c.3.891,9.905,61.748-12.434,84.3s-60.975,9.2-70.389-13.908c-8.124-19.947-9.694-57.533,6.113-80.5S303.8,145.858,319.4,191.589Z" transform="translate(-97.736 -137.246)" fill="url(#linear-gradient-6)" style="mix-blend-mode: overlay;isolation: isolate"/>
              <path id="Path_57" data-name="Path 57" d="M268.165,192.073l2.456,34.522-6.582,1.286" transform="translate(-80.553 -121.168)" fill="none" stroke="#ad683a" stroke-miterlimit="10" stroke-width="0.246"/>
              <path id="Path_58" data-name="Path 58" d="M224.461,209.365s7.165.422,7.305,7.025-5.9,5.76-7.305,2.108,4.162-4.76,6.375-1.914" transform="translate(-100.989 -112.289)" fill="none" stroke="#ad683a" stroke-miterlimit="10" stroke-width="0.246"/>
              <path id="Path_59" data-name="Path 59" d="M298.476,211.3s-7.165.422-7.305,7.025,5.9,5.76,7.305,2.108-4.162-4.76-6.375-1.914" transform="translate(-66.624 -111.297)" fill="none" stroke="#ad683a" stroke-miterlimit="10" stroke-width="0.246"/>
              <path id="Path_60" data-name="Path 60" d="M290.955,221.669c0,3.666-3.681,6.638-8.219,6.638s-8.219-2.972-8.219-6.638,3.681-6.639,8.219-6.639S290.955,218,290.955,221.669Z" transform="translate(-75.174 -109.381)" fill="#f4826c"/>
              <path id="Path_61" data-name="Path 61" d="M255.267,220.942c0,3.667-3.679,6.639-8.218,6.639s-8.219-2.972-8.219-6.639,3.679-6.638,8.219-6.638S255.267,217.276,255.267,220.942Z" transform="translate(-93.497 -109.753)" fill="#f4826c"/>
              <ellipse id="Ellipse_3" data-name="Ellipse 3" cx="2.002" cy="0.931" rx="2.002" ry="0.931" transform="translate(176.312 132.213)" fill="#eaa16e"/>
              <path id="Path_62" data-name="Path 62" d="M243.429,196.988c.36,1.886,3.614-.017,8.073-.869s8.434-.33,8.074-2.217-4.268-2.724-8.727-1.872S243.069,195.1,243.429,196.988Z" transform="translate(-91.149 -121.361)" fill="#5c2c2c"/>
              <path id="Path_63" data-name="Path 63" d="M274.625,193.865c-.369,1.884,3.613,1.388,8.067,2.261s7.7,2.782,8.065.9-2.944-4.12-7.4-4.991S274.994,191.981,274.625,193.865Z" transform="translate(-75.13 -121.368)" fill="#5c2c2c"/>
              <path id="Path_64" data-name="Path 64" d="M252.476,220.986a17.28,17.28,0,0,0,14.966,8.527c10.534,0,13.694-8.527,13.694-8.527" transform="translate(-86.49 -106.323)" fill="none" stroke="#ad683a" stroke-miterlimit="10" stroke-width="0.246"/>
              <path id="Path_65" data-name="Path 65" d="M272.758,201.606s-2.7,11.278,6.125,11.74c7.646.4,6.636-10.208,6.636-10.208s-.7,7.673-6.636,7.656C273.268,210.779,272.758,201.606,272.758,201.606Z" transform="translate(-76.276 -116.273)" fill="#010c39"/>
              <path id="Path_66" data-name="Path 66" d="M259.881,201.606s2.7,11.278-6.126,11.74c-7.646.4-6.635-10.208-6.635-10.208s.7,7.673,6.635,7.656C259.37,210.779,259.881,201.606,259.881,201.606Z" transform="translate(-89.263 -116.273)" fill="#010c39"/>
              <path id="Path_67" data-name="Path 67" d="M264.6,186.912a2.966,2.966,0,1,0,2.966-2.966A2.966,2.966,0,0,0,264.6,186.912Z" transform="translate(-80.266 -125.34)" fill="#cc2c12"/>
              <path id="Path_68" data-name="Path 68" d="M225.8,223.469s8.97-.38,11.672,10.615c0,0,5.645-42.513,24.51-55.174,16.1-10.8,11.437,12.684,23.333,12.058,12.829-.675-.041-18.6,14.366-15.295,10.328,2.369,25.333,24.94,23.908,54.168,0,0,21.768-71.91-39.891-74.08S225.8,223.469,225.8,223.469Z" transform="translate(-100.21 -139.837)" fill="#5c2c2c"/>
              <path id="Path_69" data-name="Path 69" d="M343.715,262.276s-16.846,97.193-120.975,86.856L178.574,475.847s11.5,34.237,86.13,47.036S385.92,493.908,385.92,493.908s-32.33-131.975-25.934-175.25,2.3-51.21,2.3-51.21Z" transform="translate(-124.434 -85.123)" fill="#fdb700"/>
              <path id="Path_70" data-name="Path 70" d="M328.731,262.276s-27.337,97.708-120.975,86.856C207.756,349.132,308.68,393.912,328.731,262.276Z" transform="translate(-109.451 -85.123)" fill="#ffcd5f"/>
              <path id="Path_71" data-name="Path 71" d="M275.652,405.115c-1.992-1.389-77.03-36.268-121.8,23.43-42.08,56.108,43.421,98.181,132.2,74.661a76.159,76.159,0,0,1,34.511-1.134c31.9,6.409,100.806,8.439,133.729-30.567,35.628-42.208-51.054-108.435-132.9-74.734C321.388,396.771,291.057,415.868,275.652,405.115Z" transform="translate(-142.801 -20.811)" fill="#fdb700"/>
              <path id="Path_72" data-name="Path 72" d="M275.652,405.115c-1.992-1.389-77.03-36.268-121.8,23.43-42.08,56.108,43.421,98.181,132.2,74.661a76.159,76.159,0,0,1,34.511-1.134c31.9,6.409,100.806,8.439,133.729-30.567,35.628-42.208-51.054-108.435-132.9-74.734C321.388,396.771,291.057,415.868,275.652,405.115Z" transform="translate(-142.801 -20.811)" fill="url(#linear-gradient-7)" style="mix-blend-mode: overlay;isolation: isolate"/>
              <path id="Path_73" data-name="Path 73" d="M297.788,304.155s19.228,97.375,31.395,110.348,33.518,10.185,32.925-11.962-32.733-112.406-32.733-112.406Z" transform="translate(-63.225 -70.819)" fill="#cc885a"/>
              <path id="Path_74" data-name="Path 74" d="M316.107,365.316c12.068,6.034,27.47,8.716,38.671,3.184-9.653-34.134-25.4-78.366-25.4-78.366l-31.587,14.021s6.19,31.345,13.768,60.837A6.6,6.6,0,0,1,316.107,365.316Z" transform="translate(-63.225 -70.819)" fill="#ad683a" opacity="0.32"/>
              <path id="Path_75" data-name="Path 75" d="M244.912,393.538c1.616-.339,90.97-38.367,107.931-36.406s35.475,19.16,35.475,19.16-1.722,19.44-50.009,23.318-91.176,9.719-91.176,9.719Z" transform="translate(-90.374 -36.458)" fill="#cc885a"/>
              <path id="Path_76" data-name="Path 76" d="M303.036,265.706s28.668,3.623,38.485,49.791S363.5,361.7,363.5,361.7s-13.488,12.322-42.814,6.219c-25-5.2-26.65,12.4-26.65,12.4Z" transform="translate(-65.152 -83.362)" fill="#fdb700"/>
              <path id="Path_77" data-name="Path 77" d="M311.087,271.4c8.357,25.321,15.7,57.842,33.323,76.763-3.67-6.715-7.832-17.666-11.643-35.59C328.1,290.621,319.17,278.3,311.087,271.4Z" transform="translate(-56.397 -80.438)" fill="#ffcd5f"/>
              <path id="Path_78" data-name="Path 78" d="M272.927,383.568l-6.078,2.6s-9.085-11.941-16.879-13.89c-2.508-.627-4.605.168-4.726,2.122-.145,2.316,2.942,4.413,6.848,5.933,6.945,2.7,1.93,14.323-9.453,14.228s-14.276-5.692-12.058-12.251,1.687-9.162-.69-10.081c-2.928-1.13-7.448,2.508-9.872,7.719-1.746,3.753-2.954,8-2.653,11.414.917,10.337,12.733,9.854,12.733,9.854s-26.815-1.928-27.3,5.209c-.168,2.5,4.018,2.662,9.044,3.087a202.654,202.654,0,0,0,22.4.1s13.022,1.641,36.365-8.778Z" transform="translate(-111.998 -28.773)" fill="#cc885a"/>
              <path id="Path_79" data-name="Path 79" d="M230.179,315.232s-16.427,97.886-28.218,111.2-33.211,11.142-33.255-11.013,29.5-113.3,29.5-113.3Z" transform="translate(-129.501 -64.664)" fill="#cc885a"/>
              <path id="Path_80" data-name="Path 80" d="M200.467,410.14s72.286,1.736,119.165,33.423" transform="translate(-113.194 -9.203)" fill="none" stroke="#c98b00" stroke-miterlimit="10" stroke-width="0.337"/>
              <path id="Path_81" data-name="Path 81" d="M245.707,424.462s45.536-18.926,84.409-20.855" transform="translate(-89.966 -12.558)" fill="none" stroke="#c98b00" stroke-miterlimit="10" stroke-width="0.337"/>
              <path id="Path_82" data-name="Path 82" d="M223.615,199.44a3.238,3.238,0,1,0,3.237-3.237A3.238,3.238,0,0,0,223.615,199.44Z" transform="translate(-101.309 -119.047)" fill="#5c2c2c"/>
              <path id="Path_83" data-name="Path 83" d="M223.615,195.312a3.238,3.238,0,1,0,3.237-3.239A3.238,3.238,0,0,0,223.615,195.312Z" transform="translate(-101.309 -121.168)" fill="#5c2c2c"/>
              <path id="Path_84" data-name="Path 84" d="M224.237,191.468a3.237,3.237,0,1,0,3.237-3.237A3.237,3.237,0,0,0,224.237,191.468Z" transform="translate(-100.989 -123.14)" fill="#5c2c2c"/>
              <path id="Path_85" data-name="Path 85" d="M224.935,187.665a3.238,3.238,0,1,0,3.237-3.237A3.238,3.238,0,0,0,224.935,187.665Z" transform="translate(-100.631 -125.093)" fill="#5c2c2c"/>
              <path id="Path_86" data-name="Path 86" d="M225.945,183.891a3.238,3.238,0,1,0,3.239-3.237A3.239,3.239,0,0,0,225.945,183.891Z" transform="translate(-100.112 -127.031)" fill="#5c2c2c"/>
              <path id="Path_87" data-name="Path 87" d="M227.074,179.821a3.238,3.238,0,1,0,3.239-3.237A3.238,3.238,0,0,0,227.074,179.821Z" transform="translate(-99.533 -129.12)" fill="#5c2c2c"/>
              <path id="Path_88" data-name="Path 88" d="M228.085,175.869a3.237,3.237,0,1,0,3.237-3.237A3.236,3.236,0,0,0,228.085,175.869Z" transform="translate(-99.013 -131.15)" fill="#5c2c2c"/>
              <path id="Path_89" data-name="Path 89" d="M230.224,172.333a3.237,3.237,0,1,0,3.237-3.237A3.238,3.238,0,0,0,230.224,172.333Z" transform="translate(-97.915 -132.965)" fill="#5c2c2c"/>
              <path id="Path_90" data-name="Path 90" d="M232.363,168.748a3.238,3.238,0,1,0,3.237-3.237A3.238,3.238,0,0,0,232.363,168.748Z" transform="translate(-96.817 -134.806)" fill="#5c2c2c"/>
              <path id="Path_91" data-name="Path 91" d="M235.176,166.054a3.237,3.237,0,1,0,3.237-3.237A3.238,3.238,0,0,0,235.176,166.054Z" transform="translate(-95.373 -136.189)" fill="#5c2c2c"/>
              <path id="Path_92" data-name="Path 92" d="M238.187,163.362a3.237,3.237,0,1,0,3.237-3.239A3.237,3.237,0,0,0,238.187,163.362Z" transform="translate(-93.827 -137.572)" fill="#5c2c2c"/>
              <path id="Path_93" data-name="Path 93" d="M241.429,160.668a3.237,3.237,0,1,0,3.237-3.239A3.238,3.238,0,0,0,241.429,160.668Z" transform="translate(-92.162 -138.955)" fill="#5c2c2c"/>
              <path id="Path_94" data-name="Path 94" d="M244.876,158.967a3.237,3.237,0,1,0,3.237-3.237A3.237,3.237,0,0,0,244.876,158.967Z" transform="translate(-90.392 -139.828)" fill="#5c2c2c"/>
              <path id="Path_95" data-name="Path 95" d="M301.471,352.408s2.1-48.8-3.41-62.225" transform="translate(-63.085 -70.794)" fill="none" stroke="#c98b00" stroke-miterlimit="10" stroke-width="0.337"/>
              <path id="Path_96" data-name="Path 96" d="M330.506,286.133s-26.859,75.934-117.075,69.07" transform="translate(-106.537 -72.874)" fill="none" stroke="#c98b00" stroke-miterlimit="10" stroke-width="0.337"/>
              <path id="Path_97" data-name="Path 97" d="M282.417,325.144c-1.326.984-89.09,42.549-98.887,56.535s-9.227,39.248-9.227,39.248,15.681,11.62,50.641-21.913,67.807-61.723,67.807-61.723Z" transform="translate(-126.63 -52.844)" fill="#cc885a"/>
              <path id="Path_98" data-name="Path 98" d="M248.216,359.124l3.307-5.724s14.428,4.124,21.837,1.017c2.384-1,3.587-2.891,2.515-4.53-1.271-1.94-5-1.772-9.038-.651-7.18,2-10.122-10.317-.947-17.055s14.842-3.989,16.993,2.593,4.135,8.35,6.59,7.661c3.022-.848,4.463-6.468,3.284-12.092-.848-4.051-2.425-8.179-4.708-10.73-6.924-7.731-16.1-.269-16.1-.269s22.633-14.511,18.745-20.516c-1.362-2.107-4.811.272-9.091,2.942a202.917,202.917,0,0,0-18,13.335s-11.411,6.484-23.87,28.805Z" transform="translate(-93.033 -66.771)" fill="#cc885a"/>
            </g>
            <g id="Group_13" data-name="Group 13" transform="translate(332.514 113.109)">
              <path id="Path_99" data-name="Path 99" d="M331.432,267.3s21.176,10.04,36.183-11.973c6.745-9.895,3.271-22.815,3.271-22.815s-10.028.966-24.471,14.939S331.432,267.3,331.432,267.3Z" transform="translate(-311.688 -213.515)" fill="#ef4864"/>
              <path id="Path_100" data-name="Path 100" d="M335.355,272.537s-21.8-8.6-15.98-34.6c2.617-11.687,14.425-17.977,14.425-17.977s6.146,7.982,5.812,28.076S335.355,272.537,335.355,272.537Z" transform="translate(-318.386 -219.959)" fill="#ef4864"/>
              <path id="Path_101" data-name="Path 101" d="M336.694,241.162" transform="translate(-308.986 -209.073)" fill="none" stroke="#ff5970" stroke-miterlimit="10" stroke-width="0.437"/>
              <path id="Path_102" data-name="Path 102" d="M337.526,272.313a10.558,10.558,0,0,1-10.319-5.916,22.455,22.455,0,0,1,1.158-22.363c9.326-15.375,29.617-20.678,29.617-20.678s5.846,23.265-.524,35.139C351.728,269.174,343.354,271.874,337.526,272.313Z" transform="translate(-315.109 -218.215)" fill="#ff5970"/>
            </g>
            <g id="Group_14" data-name="Group 14" transform="translate(397.939 253.942)">
              <path id="Path_103" data-name="Path 103" d="M374.661,360.352s21.178,10.04,36.183-11.973c6.745-9.895,3.271-22.815,3.271-22.815s-10.027.966-24.471,14.939S374.661,360.352,374.661,360.352Z" transform="translate(-354.917 -306.57)" fill="#ef4864"/>
              <path id="Path_104" data-name="Path 104" d="M378.583,365.592s-21.8-8.6-15.98-34.6c2.617-11.687,14.425-17.977,14.425-17.977s6.146,7.982,5.812,28.076S378.583,365.592,378.583,365.592Z" transform="translate(-361.616 -313.014)" fill="#ef4864"/>
              <path id="Path_105" data-name="Path 105" d="M379.923,334.217" transform="translate(-352.216 -302.128)" fill="none" stroke="#ff5970" stroke-miterlimit="10" stroke-width="0.437"/>
              <path id="Path_106" data-name="Path 106" d="M380.756,365.368a10.555,10.555,0,0,1-10.319-5.916,22.454,22.454,0,0,1,1.156-22.363c9.327-15.375,29.617-20.678,29.617-20.678s5.846,23.265-.524,35.139C394.957,362.229,386.583,364.929,380.756,365.368Z" transform="translate(-358.338 -311.27)" fill="#ff5970"/>
            </g>
            <g id="Group_15" data-name="Group 15" transform="translate(71.687 112.752)">
              <path id="Path_107" data-name="Path 107" d="M176.59,272.323s21.6-9.1,15.177-34.962c-2.886-11.623-14.836-17.638-14.836-17.638s-5.96,8.121-5.161,28.2S176.59,272.323,176.59,272.323Z" transform="translate(-132.875 -219.723)" fill="#ef4864"/>
              <path id="Path_108" data-name="Path 108" d="M187.014,266.8s-20.938,10.527-36.45-11.134c-6.972-9.736-3.8-22.733-3.8-22.733s10.048.734,24.808,14.37S187.014,266.8,187.014,266.8Z" transform="translate(-146.045 -212.938)" fill="#ef4864"/>
              <path id="Path_109" data-name="Path 109" d="M167.746,241" transform="translate(-134.903 -208.796)" fill="none" stroke="#ff5970" stroke-miterlimit="10" stroke-width="0.437"/>
              <path id="Path_110" data-name="Path 110" d="M186.023,269.539a10.559,10.559,0,0,1-11.287,3.755,22.46,22.46,0,0,1-15.906-15.761c-5.252-17.2,4.31-35.864,4.31-35.864s21.246,11.139,25.856,23.8C193.144,256.857,189.578,264.9,186.023,269.539Z" transform="translate(-140.29 -218.724)" fill="#ff5970"/>
            </g>
            <g id="Group_16" data-name="Group 16" transform="translate(0.009 253.585)">
              <path id="Path_111" data-name="Path 111" d="M129.23,365.376s21.6-9.1,15.177-34.96c-2.886-11.623-14.836-17.638-14.836-17.638s-5.96,8.121-5.161,28.2S129.23,365.376,129.23,365.376Z" transform="translate(-85.514 -312.778)" fill="#ef4864"/>
              <path id="Path_112" data-name="Path 112" d="M139.654,359.86s-20.94,10.528-36.451-11.134c-6.972-9.736-3.8-22.733-3.8-22.733s10.046.734,24.808,14.37S139.654,359.86,139.654,359.86Z" transform="translate(-98.685 -305.993)" fill="#ef4864"/>
              <path id="Path_113" data-name="Path 113" d="M120.386,334.059" transform="translate(-87.543 -301.852)" fill="none" stroke="#ff5970" stroke-miterlimit="10" stroke-width="0.437"/>
              <path id="Path_114" data-name="Path 114" d="M138.663,362.594a10.559,10.559,0,0,1-11.287,3.755,22.458,22.458,0,0,1-15.906-15.761c-5.253-17.2,4.31-35.864,4.31-35.864s21.244,11.139,25.856,23.8C145.782,349.913,142.217,357.957,138.663,362.594Z" transform="translate(-92.93 -311.779)" fill="#ff5970"/>
            </g>
          </g>
        </g>
      </g>
    </g>
  </g>
</svg>
