<svg width="512" height="512" viewBox="0 0 512 512" fill="none" xmlns="http://www.w3.org/2000/svg">
<path d="M144 318.5H64C59.582 318.5 56 322.082 56 326.5V502.5C56 506.918 59.582 510.5 64 510.5H144C148.418 510.5 152 506.918 152 502.5V326.5C152 322.082 148.418 318.5 144 318.5Z" fill="#80B4FB"/>
<path d="M80 502.5V326.5C80 322.082 83.582 318.5 88 318.5H64C59.582 318.5 56 322.082 56 326.5V502.5C56 506.918 59.582 510.5 64 510.5H88C83.582 510.5 80 506.918 80 502.5Z" fill="#80B4FB"/>
<path d="M296 278.5H216C211.582 278.5 208 282.082 208 286.5V502.5C208 506.918 211.582 510.5 216 510.5H296C300.418 510.5 304 506.918 304 502.5V286.5C304 282.082 300.418 278.5 296 278.5Z" fill="#80B4FB"/>
<path d="M232 502.5V286.5C232 282.082 235.582 278.5 240 278.5H216C211.582 278.5 208 282.082 208 286.5V502.5C208 506.918 211.582 510.5 216 510.5H240C235.582 510.5 232 506.918 232 502.5Z" fill="#80B4FB"/>
<path d="M448 190.5H368C363.582 190.5 360 194.082 360 198.5V502.5C360 506.918 363.582 510.5 368 510.5H448C452.418 510.5 456 506.918 456 502.5V198.5C456 194.082 452.418 190.5 448 190.5Z" fill="#80B4FB"/>
<path d="M384 502.5V198.5C384 194.082 387.582 190.5 392 190.5H368C363.582 190.5 360 194.082 360 198.5V502.5C360 506.918 363.582 510.5 368 510.5H392C387.582 510.5 384 506.918 384 502.5Z" fill="#80B4FB"/>
<path d="M504 510.5H8C3.582 510.5 0 506.918 0 502.5C0 498.082 3.582 494.5 8 494.5H504C508.418 494.5 512 498.082 512 502.5C512 506.918 508.418 510.5 504 510.5Z" fill="#AAB4BD"/>
<path d="M482.589 5.50591C479.149 2.46791 474.566 1.05391 470.016 1.62391L406.016 9.62391C397.247 10.7199 391.028 18.7169 392.124 27.4849C393.22 36.2549 401.226 42.4679 409.984 41.3769L434.052 38.3689C352.648 139.657 252.56 191.285 180.743 217.031C96.902 247.087 32.145 249.488 31.5 249.508C22.675 249.783 15.74 257.157 16.008 265.985C16.27 274.652 23.379 281.5 31.991 281.5C32.155 281.5 32.319 281.498 32.484 281.493C35.282 281.408 102.015 279.055 190.37 247.572C242.199 229.104 290.763 204.366 334.711 174.045C380.307 142.587 420.976 105.012 456 62.0969V81.4999C456 90.3359 463.163 97.4999 472 97.4999C480.837 97.4999 488 90.3359 488 81.4999V17.4999C488 12.9109 486.029 8.54291 482.589 5.50591Z" fill="#55697A"/>
</svg>
