<svg width="42" height="43" viewBox="0 0 42 43" fill="none" xmlns="http://www.w3.org/2000/svg">
<path fill-rule="evenodd" clip-rule="evenodd" d="M16.9335 5.90721C18.2359 5.17973 19.737 4.76514 21.3348 4.76514C22.9327 4.76514 24.4337 5.17973 25.7362 5.90721L26.6891 4.95424C26.9413 4.7021 27.3501 4.7021 27.6022 4.95424C27.8544 5.20639 27.8544 5.61519 27.6022 5.86733L26.8372 6.63229C28.9878 8.28468 30.3739 10.8826 30.3739 13.8042H12.2957C12.2957 10.8826 13.6818 8.28468 15.8324 6.63229L15.0674 5.86733C14.8153 5.61519 14.8153 5.20639 15.0674 4.95424C15.3196 4.7021 15.7284 4.7021 15.9805 4.95424L16.9335 5.90721ZM18.7522 9.93034C18.7522 10.6435 18.1741 11.2216 17.4609 11.2216C16.7477 11.2216 16.1696 10.6435 16.1696 9.93034C16.1696 9.21718 16.7477 8.63904 17.4609 8.63904C18.1741 8.63904 18.7522 9.21718 18.7522 9.93034ZM25.2087 11.2216C25.9219 11.2216 26.5 10.6435 26.5 9.93034C26.5 9.21718 25.9219 8.63904 25.2087 8.63904C24.4955 8.63904 23.9174 9.21718 23.9174 9.93034C23.9174 10.6435 24.4955 11.2216 25.2087 11.2216Z" fill="#87C527"/>
<path d="M7.13049 17.0325C7.13049 15.9628 7.9977 15.0955 9.06745 15.0955C10.1372 15.0955 11.0044 15.9628 11.0044 17.0325V24.7803C11.0044 25.8501 10.1372 26.7173 9.06745 26.7173C7.9977 26.7173 7.13049 25.8501 7.13049 24.7803V17.0325Z" fill="#87C527"/>
<path d="M16.1696 31.8825V36.402C16.1696 37.4718 17.0368 38.339 18.1066 38.339C19.1763 38.339 20.0435 37.4718 20.0435 36.402V31.8825H22.6261V36.402C22.6261 37.4718 23.4933 38.339 24.5631 38.339C25.6328 38.339 26.5 37.4718 26.5 36.402V31.8825H27.7913C29.2176 31.8825 30.3739 30.7262 30.3739 29.2999V15.0955H12.2957V29.2999C12.2957 30.7262 13.452 31.8825 14.8783 31.8825H16.1696Z" fill="#87C527"/>
<path d="M31.6652 17.0325C31.6652 15.9628 32.5324 15.0955 33.6022 15.0955C34.6719 15.0955 35.5391 15.9628 35.5391 17.0325V24.7803C35.5391 25.8501 34.6719 26.7173 33.6022 26.7173C32.5324 26.7173 31.6652 25.8501 31.6652 24.7803V17.0325Z" fill="#87C527"/>
</svg>
