<svg width="43" height="43" viewBox="0 0 43 43" fill="none" xmlns="http://www.w3.org/2000/svg">
<path d="M40.1308 21.5521C40.1308 31.5313 31.861 39.6303 21.6509 39.6303C11.4407 39.6303 3.1709 31.5313 3.1709 21.5521C3.1709 11.5639 11.4407 3.47388 21.6509 3.47388C31.861 3.47388 40.1308 11.5639 40.1308 21.5521Z" fill="#283544"/>
<path d="M30.3128 16.9776C30.212 17.0351 27.8114 18.2496 27.8114 20.9425C27.9245 24.0135 30.8408 25.0905 30.8908 25.0905C30.8408 25.148 30.4506 26.5576 29.2945 28.0352C28.3771 29.308 27.3588 30.5912 25.8125 30.5912C24.3417 30.5912 23.8137 29.743 22.1165 29.743C20.2939 29.743 19.7782 30.5912 18.3828 30.5912C16.8365 30.5912 15.7428 29.2392 14.7754 27.9784C13.5185 26.3281 12.4502 23.7384 12.4125 21.2519C12.3871 19.9342 12.6642 18.639 13.3676 17.5388C14.3605 16.003 16.1331 14.9603 18.0688 14.926C19.552 14.8804 20.872 15.8542 21.7771 15.8542C22.6445 15.8542 24.2662 14.926 26.1011 14.926C26.8931 14.9267 29.0051 15.1442 30.3128 16.9776ZM21.6517 14.6629C21.3877 13.4596 22.1165 12.2563 22.7954 11.4887C23.6628 10.5605 25.0328 9.93042 26.2143 9.93042C26.2897 11.1337 25.8117 12.3138 24.9574 13.1733C24.1908 14.1016 22.8708 14.8004 21.6517 14.6629Z" fill="white"/>
</svg>
