<svg width="512" height="512" viewBox="0 0 512 512" fill="none" xmlns="http://www.w3.org/2000/svg">
<g clip-path="url(#clip0)">
<path d="M469.149 104.457H0.0370505C0.0370505 104.457 0.438051 383.876 0.0370505 399.337C0.0340505 399.47 0.0340505 399.603 0.0380505 399.735C0.441051 414.612 6.53605 428.533 17.1991 438.935C27.8871 449.359 41.9951 455.101 56.9281 455.101H304.71C306.703 455.101 308.615 454.309 310.024 452.901L474.464 288.461C475.873 287.051 476.664 285.141 476.664 283.147V111.971C476.664 107.82 473.299 104.457 469.149 104.457Z" fill="#E0E0E2"/>
<path d="M469.149 104.457H444.1V318.824L474.463 288.461C475.872 287.051 476.663 285.141 476.663 283.147V111.971C476.664 107.82 473.299 104.457 469.149 104.457Z" fill="#C6C5CA"/>
<path d="M342.406 307.108H134.292C130.142 307.108 126.777 303.744 126.777 299.593C126.777 295.442 130.142 292.078 134.292 292.078H342.406C346.557 292.078 349.921 295.442 349.921 299.593C349.921 303.744 346.556 307.108 342.406 307.108Z" fill="#3C5156"/>
<path d="M57.108 339.768C60.349 339.768 63.524 340.049 66.62 340.563V30.1117C66.62 25.9607 63.255 22.5967 59.105 22.5967C26.515 22.5967 0 49.1107 0 81.7017V389.495C3.871 361.406 27.956 339.768 57.108 339.768Z" fill="#919191"/>
<path d="M407.952 97.2861L362.821 52.1541C361.411 50.7451 359.5 49.9541 357.507 49.9541C355.514 49.9541 353.603 50.7461 352.193 52.1541L185.977 218.369C185.877 218.469 185.788 218.576 185.694 218.682L242.264 273.599L407.951 107.914C410.887 104.978 410.887 100.221 407.952 97.2861Z" fill="#FFD039"/>
<path d="M185.714 218.701C185.049 219.432 184.519 220.292 184.179 221.254L159.581 290.937C158.618 293.666 159.307 296.705 161.353 298.752C162.787 300.186 164.708 300.952 166.667 300.952C167.506 300.952 168.35 300.812 169.168 300.523L238.85 275.925C240.191 275.452 241.335 274.608 242.198 273.534L185.714 218.701Z" fill="#FFC89F"/>
<path d="M166.668 300.952C167.507 300.952 168.351 300.812 169.169 300.523L238.851 275.925C240.192 275.452 241.336 274.608 242.199 273.534L221.596 253.533L165.727 273.528L159.582 290.935C158.619 293.664 159.308 296.703 161.354 298.75C162.788 300.185 164.708 300.952 166.668 300.952Z" fill="#F7B081"/>
<path d="M166.668 300.952C167.507 300.952 168.351 300.812 169.169 300.523L213.113 285.011L175.023 247.194L159.583 290.935C158.62 293.664 159.309 296.703 161.355 298.75C162.788 300.185 164.708 300.952 166.668 300.952Z" fill="#3C5156"/>
<path d="M192.056 264.106L165.727 273.529L159.582 290.936C158.619 293.665 159.308 296.704 161.354 298.751C162.788 300.185 164.709 300.951 166.668 300.951C167.507 300.951 168.351 300.811 169.169 300.522L213.113 285.01L192.056 264.106Z" fill="#304144"/>
<path d="M432.369 72.8676L387.237 27.7366C384.301 24.8026 379.544 24.8026 376.609 27.7366L346.899 57.4466L402.636 113.23L432.369 83.4966C433.778 82.0866 434.569 80.1766 434.569 78.1826C434.569 76.1896 433.777 74.2786 432.369 72.8676Z" fill="#FF6137"/>
<path d="M452.574 30.8853L429.219 7.53129C424.892 3.20429 419.136 0.821289 413.016 0.821289C406.896 0.821289 401.141 3.20429 396.813 7.53129L381.933 22.4113L376.607 27.7373L371.192 33.1523L427.055 88.8093L435.033 80.8303L452.573 63.2903C456.9 58.9633 459.283 53.2073 459.283 47.0873C459.283 40.9673 456.901 35.2133 452.574 30.8853Z" fill="#546F7A"/>
<path d="M371.285 33.0605L371.193 33.1525L387.86 49.7565L371.285 33.0605Z" fill="#475D63"/>
<path d="M507.361 240.868C504.553 239.704 501.321 240.347 499.171 242.496L243.317 498.35C241.168 500.5 240.525 503.732 241.688 506.54C242.851 509.348 245.592 511.179 248.631 511.179H504.486C508.636 511.179 512.001 507.815 512.001 503.664V247.811C512 244.772 510.168 242.03 507.361 240.868ZM368.032 450.391L450.158 368.265V450.391H368.032V450.391Z" fill="#FFCA10"/>
<path d="M512 332.253H483.106C478.955 332.253 475.591 335.617 475.591 339.768C475.591 343.919 478.955 347.283 483.106 347.283H512V332.253Z" fill="#C96E14"/>
<path d="M512 369.929H483.106C478.955 369.929 475.591 373.293 475.591 377.444C475.591 381.595 478.955 384.959 483.106 384.959H512V369.929Z" fill="#C96E14"/>
<path d="M512 407.602H483.106C478.955 407.602 475.591 410.966 475.591 415.117C475.591 419.268 478.955 422.632 483.106 422.632H512V407.602Z" fill="#C96E14"/>
<path d="M512 445.278H483.106C478.955 445.278 475.591 448.643 475.591 452.793C475.591 456.944 478.955 460.308 483.106 460.308H512V445.278Z" fill="#C96E14"/>
</g>
<defs>
<clipPath id="clip0">
<rect width="512" height="512" fill="white"/>
</clipPath>
</defs>
</svg>
