<svg width="512" height="512" viewBox="0 0 512 512" fill="none" xmlns="http://www.w3.org/2000/svg">
<path d="M32.8882 30.905V481.094C32.8882 498.163 46.7252 511.999 63.7932 511.999H381.205C398.274 511.999 412.11 498.162 412.11 481.094V30.905C412.11 13.837 398.274 0 381.205 0H63.7932C46.7252 0 32.8882 13.837 32.8882 30.905V30.905Z" fill="#01C0FA"/>
<path d="M381.205 0H356.481C373.55 0 387.386 13.837 387.386 30.905V481.094C387.386 498.163 373.549 511.999 356.481 511.999H381.205C398.274 511.999 412.11 498.162 412.11 481.094V30.905C412.11 13.837 398.274 0 381.205 0V0Z" fill="#01C0FA"/>
<path d="M63.793 475.944V36.0563C63.793 33.2113 66.099 30.9053 68.944 30.9053H376.055C378.9 30.9053 381.206 33.2113 381.206 36.0563V475.943C381.206 478.788 378.9 481.094 376.055 481.094H68.944C66.099 481.095 63.793 478.788 63.793 475.944V475.944Z" fill="#F5F8F9"/>
<path d="M222.499 425.758C212.102 425.758 203.642 434.217 203.642 444.616C203.642 455.014 212.102 463.474 222.499 463.474C232.897 463.474 241.357 455.015 241.357 444.616C241.357 434.217 232.897 425.758 222.499 425.758Z" fill="#596C76"/>
<path d="M239.497 61.8114H205.501C201.233 61.8114 197.775 58.3524 197.775 54.0854C197.775 49.8184 201.234 46.3594 205.501 46.3594H239.497C243.765 46.3594 247.223 49.8184 247.223 54.0854C247.223 58.3524 243.765 61.8114 239.497 61.8114Z" fill="#596C76"/>
<path d="M346.632 279.483C341.528 288.323 318.51 303.922 303.088 313.72C296.936 317.628 288.932 313.007 289.241 305.725C290.015 287.47 292.015 259.736 297.119 250.896L399.825 73.0061L411.016 65.9771L412.292 51.4141L425.765 28.0781C433.659 14.4051 451.142 9.7211 464.815 17.6151C478.488 25.5091 478.854 38.6741 470.96 52.3461L346.632 279.483Z" fill="#FE9738"/>
<path d="M464.814 17.6145C461.795 15.8715 458.59 14.7435 455.343 14.1885C462.767 23.1295 464.255 36.0955 458.104 46.7495L329.459 269.569C324.731 277.759 304.629 291.747 289.434 301.553C289.363 302.986 289.299 304.385 289.242 305.727C288.933 313.009 296.937 317.63 303.089 313.722C318.511 303.924 341.53 288.325 346.633 279.485L449.156 101.91L451.5 88.6105L462.024 79.6205L475.278 56.6635C483.171 42.9915 478.487 25.5085 464.814 17.6145V17.6145Z" fill="#FE9738"/>
<path d="M399.617 73.375L412.525 51.0192L462.037 79.6057L449.129 101.962L399.617 73.375Z" fill="#E8EDF2"/>
<path d="M431.956 92.0459L444.864 69.6901L462.036 79.6051L449.129 101.961L431.956 92.0459Z" fill="#C5D3DD"/>
<path d="M303.088 313.72C318.51 303.922 341.529 288.323 346.632 279.483L297.119 250.897C292.015 259.737 290.015 287.471 289.241 305.726C288.932 313.008 296.936 317.629 303.088 313.72Z" fill="#596C76"/>
<path d="M329.459 269.568C324.731 277.758 304.629 291.746 289.434 301.552C289.21 306.072 288.456 310.867 293.742 313.92C296.473 315.497 300.012 315.675 303.088 313.721C318.511 303.923 341.529 288.324 346.632 279.484L329.459 269.568Z" fill="#596C76"/>
<path d="M340.7 240.301C339.389 240.301 338.06 239.967 336.844 239.264C333.149 237.13 331.882 232.405 334.016 228.71L340.64 217.238C342.773 213.542 347.499 212.275 351.194 214.41C354.889 216.544 356.156 221.269 354.022 224.964L347.398 236.436C345.968 238.915 343.37 240.301 340.7 240.301Z" fill="#FEDF30"/>
<path d="M235.233 380.972C219.576 380.972 205.311 373.023 197.073 359.708L169.497 315.134C166.795 310.767 162.116 308.16 156.981 308.16C151.787 308.16 146.925 310.942 144.293 315.42L122.714 352.138C120.551 355.817 115.816 357.046 112.139 354.884C108.46 352.722 107.231 347.987 109.393 344.308L130.972 307.591C136.366 298.411 146.333 292.708 156.982 292.708C167.509 292.708 177.101 298.053 182.639 307.005L210.215 351.579C215.616 360.309 224.97 365.521 235.234 365.521C243.821 365.521 251.954 361.785 257.55 355.271L269.909 340.884C272.69 337.647 277.568 337.278 280.804 340.058C284.041 342.838 284.412 347.716 281.631 350.953L269.272 365.34C260.736 375.274 248.33 380.972 235.233 380.972Z" fill="#01C0FA"/>
</svg>
