<svg height="512pt" viewBox="-92 0 512 512" width="512pt" xmlns="http://www.w3.org/2000/svg"><path d="m196.214844 512h-63.460938c-15.289062 0-27.679687-12.390625-27.679687-27.679688v-37.367187h118.816406v37.367187c0 15.289063-12.390625 27.679688-27.675781 27.679688zm0 0" fill="#426175"/><path d="m223.660156 479.476562h-118.355468c-8.144532 0-14.746094-6.601562-14.746094-14.746093v-100.730469c0-8.144531 6.601562-14.75 14.746094-14.75h118.355468c8.144532 0 14.746094 6.605469 14.746094 14.75v100.730469c0 8.144531-6.601562 14.746093-14.746094 14.746093zm0 0" fill="#cdd6df"/><path d="m223.660156 349.25h-40.589844v130.226562h40.589844c8.144532 0 14.746094-6.601562 14.746094-14.746093v-100.730469c0-8.144531-6.601562-14.75-14.746094-14.75zm0 0" fill="#abb2ba"/><path d="m328.964844 164.484375c0-90.84375-73.640625-164.484375-164.480469-164.484375-90.84375 0-164.484375 73.640625-164.484375 164.484375 0 34.371094 10.542969 67.285156 28.574219 94.917969 24.992187 38.300781 42.945312 67.996094 46.910156 109.972656.964844 10.191406 9.453125 18.011719 19.691406 18.011719h138.617188c10.234375 0 18.722656-7.820313 19.6875-18.011719 3.964843-41.976562 21.917969-71.671875 46.910156-109.972656 18.03125-27.632813 28.574219-60.546875 28.574219-94.917969zm0 0" fill="#fed066"/><path d="m164.484375 0c-9.433594 0-18.671875.804688-27.667969 2.328125 77.664063 13.15625 136.8125 80.742187 136.8125 162.15625 0 34.371094-10.542968 67.285156-28.574218 94.917969-28.417969 43.554687-47.734376 75.980468-47.734376 127.984375h36.472657c10.234375 0 18.726562-7.820313 19.6875-18.007813 3.964843-41.976562 21.921875-71.671875 46.914062-109.976562 18.027344-27.632813 28.574219-60.546875 28.574219-94.917969-.003906-90.84375-73.644531-164.484375-164.484375-164.484375zm0 0" fill="#f5b556"/><path d="m257.777344 168.042969h-6.691406c-4.398438 0-8.320313-2.851563-9.59375-7.058594-1.621094-5.351563-3.78125-10.472656-6.414063-15.296875-2.132813-3.898438-1.414063-8.742188 1.730469-11.882812l4.796875-4.796876c3.925781-3.925781 3.925781-10.289062 0-14.214843l-8.097657-8.097657c-3.925781-3.925781-10.289062-3.925781-14.210937 0l-4.800781 4.796876c-3.140625 3.144531-7.980469 3.863281-11.882813 1.734374-4.824219-2.636718-9.941406-4.792968-15.296875-6.417968-4.207031-1.273438-7.058594-5.191406-7.058594-9.589844v-6.691406c0-5.550782-4.5-10.050782-10.050781-10.050782h-11.449219c-5.550781 0-10.050781 4.5-10.050781 10.050782v6.253906c0 4.464844-2.9375 8.421875-7.226562 9.644531-5.523438 1.570313-10.804688 3.707031-15.777344 6.347657-3.878906 2.0625-8.648437 1.304687-11.753906-1.800782l-4.28125-4.277344c-3.925781-3.925781-10.285157-3.925781-14.210938 0l-8.097656 8.097657c-3.925781 3.925781-3.925781 10.289062 0 14.210937l3.839844 3.84375c3.167969 3.167969 3.878906 8.0625 1.683593 11.972656-2.851562 5.070313-5.175781 10.480469-6.894531 16.148438-1.28125 4.226562-5.230469 7.074219-9.644531 7.074219h-5.152344c-5.550781 0-10.050781 4.496093-10.050781 10.050781v11.449219c0 5.550781 4.5 10.050781 10.050781 10.050781h4.75c4.457032 0 8.4375 2.917969 9.65625 7.210938 1.660156 5.851562 3.964844 11.4375 6.824219 16.675781 2.125 3.882812 1.375 8.710937-1.753906 11.84375l-3.308594 3.308593c-3.925781 3.925782-3.925781 10.289063 0 14.210938l8.097656 8.097656c3.925781 3.925782 10.289063 3.925782 14.210938 0l3.308593-3.308594c3.132813-3.128906 7.960938-3.878906 11.84375-1.753906 5.238282 2.863282 10.824219 5.164063 16.675782 6.824219 4.292968 1.21875 7.210937 5.195313 7.210937 9.65625v4.75c0 5.550781 4.5 10.050781 10.050781 10.050781h11.453126c5.546874 0 10.046874-4.5 10.046874-10.050781v-5.148437c0-4.414063 2.847657-8.367188 7.074219-9.648438 5.671875-1.71875 11.078125-4.042969 16.148438-6.894531 3.910156-2.195313 8.804687-1.484375 11.972656 1.683593l3.84375 3.839844c3.921875 3.925782 10.289063 3.925782 14.210937 0l8.097657-8.097656c3.925781-3.925781 3.925781-10.289062 0-14.210938l-4.277344-4.28125c-3.105469-3.101562-3.859375-7.875-1.800781-11.753906 2.640625-4.972656 4.777344-10.253906 6.347656-15.777344 1.21875-4.292968 5.179688-7.226562 9.644531-7.226562h6.253907c5.550781 0 10.050781-4.5 10.050781-10.050781v-11.449219c0-5.550781-4.496094-10.050781-10.046875-10.050781zm-93.292969 64.40625c-26.859375 0-48.628906-21.773438-48.628906-48.628907 0-26.855468 21.769531-48.628906 48.628906-48.628906 26.855469 0 48.628906 21.773438 48.628906 48.628906 0 26.855469-21.773437 48.628907-48.628906 48.628907zm0 0" fill="#f2f2f2"/><g fill="#abb2ba"><path d="m90.558594 409.785156h147.847656v15.238282h-147.847656zm0 0"/><path d="m90.558594 439.335938h147.847656v15.238281h-147.847656zm0 0"/></g></svg>