<svg width="512" height="512" viewBox="0 0 512 512" fill="none" xmlns="http://www.w3.org/2000/svg">
<g clip-path="url(#clip0)">
<path d="M278.673 349.356L303.233 324.797L345.485 367.048L320.925 391.608L278.673 349.356Z" fill="#365E7D"/>
<path d="M291.393 336.639L303.234 324.797L345.486 367.049L333.644 378.89L291.393 336.639Z" fill="#2B4D66"/>
<path d="M417.636 462.415L416.36 463.691C404.673 475.378 385.725 475.378 374.038 463.691L312.929 402.582C310.198 399.851 310.198 395.422 312.929 392.691L346.636 358.984C349.367 356.253 353.796 356.253 356.527 358.984L417.636 420.093C429.323 431.78 429.323 450.728 417.636 462.415Z" fill="#80B4FB"/>
<path d="M417.636 420.093L356.527 358.984C353.796 356.253 349.367 356.253 346.636 358.984L334.894 370.726L393.636 429.468C405.323 441.155 405.323 460.103 393.636 471.79L393.055 472.371C401.412 472.968 409.971 470.08 416.36 463.691L417.636 462.415C429.323 450.728 429.323 431.78 417.636 420.093V420.093Z" fill="#80B4FB"/>
<path d="M421.475 226.052H90.525C40.529 226.052 0 185.523 0 135.527V130.067C0 80.072 40.529 39.542 90.525 39.542H421.476C471.471 39.542 512.001 80.071 512.001 130.067V135.527C512 185.523 471.471 226.052 421.475 226.052V226.052Z" fill="#80B4FB"/>
<path d="M493.596 75.3584C493.615 76.1134 493.625 76.8704 493.625 77.6294V83.0894C493.625 133.084 453.096 173.614 403.1 173.614H72.1498C42.7128 173.614 16.5618 159.56 0.0288086 137.799C1.23381 186.745 41.2888 226.052 90.5248 226.052H421.476C471.471 226.052 512.001 185.523 512.001 135.527V130.067C512 109.51 505.143 90.5554 493.596 75.3584V75.3584Z" fill="#80B4FB"/>
<path d="M47.6328 141.422C52.3957 141.422 56.2568 137.561 56.2568 132.798C56.2568 128.035 52.3957 124.174 47.6328 124.174C42.8699 124.174 39.0088 128.035 39.0088 132.798C39.0088 137.561 42.8699 141.422 47.6328 141.422Z" fill="#80B4FB"/>
<path d="M79.8618 141.422C84.6247 141.422 88.4858 137.561 88.4858 132.798C88.4858 128.035 84.6247 124.174 79.8618 124.174C75.0989 124.174 71.2378 128.035 71.2378 132.798C71.2378 137.561 75.0989 141.422 79.8618 141.422Z" fill="#80B4FB"/>
<path d="M112.091 141.422C116.854 141.422 120.715 137.561 120.715 132.798C120.715 128.035 116.854 124.174 112.091 124.174C107.328 124.174 103.467 128.035 103.467 132.798C103.467 137.561 107.328 141.422 112.091 141.422Z" fill="#80B4FB"/>
<path d="M95.3018 226.052H330.016C315.74 174.65 268.608 136.921 212.659 136.921C156.71 136.921 109.578 174.65 95.3018 226.052V226.052Z" fill="#80B4FB"/>
<path d="M299.749 173.614H125.57C111.443 188.071 100.867 206.014 95.3018 226.052H330.016C324.451 206.014 313.876 188.071 299.749 173.614V173.614Z" fill="#80B4FB"/>
<path d="M297.217 173.614C302.253 186.972 305.02 201.443 305.02 216.562C305.02 219.756 304.896 222.92 304.654 226.052H330.016C324.451 206.014 313.875 188.071 299.748 173.614H297.217Z" fill="#80B4FB"/>
<path d="M413.576 190.695C445.552 190.695 471.473 164.774 471.473 132.798C471.473 100.823 445.552 74.9014 413.576 74.9014C381.601 74.9014 355.679 100.823 355.679 132.798C355.679 164.774 381.601 190.695 413.576 190.695Z" fill="#95D6A4"/>
<path d="M470.457 143.562C453.885 162.008 429.849 173.613 403.1 173.613H372.519C383.006 184.161 397.527 190.694 413.576 190.694C441.871 190.694 465.41 170.391 470.457 143.562V143.562Z" fill="#95D6A4"/>
<path d="M405.838 154.137C403.863 154.137 401.887 153.383 400.379 151.876L386.759 138.256C383.745 135.242 383.745 130.354 386.759 127.339C389.774 124.325 394.661 124.325 397.677 127.339L405.838 135.5L426.433 114.905C429.448 111.891 434.335 111.891 437.351 114.905C440.365 117.919 440.365 122.808 437.351 125.822L411.297 151.876C409.789 153.383 407.813 154.137 405.838 154.137Z" fill="#F4FBFF"/>
<path d="M212.659 388.228C141.245 388.228 83.146 330.129 83.146 258.715C83.146 187.301 141.245 129.202 212.659 129.202C284.072 129.202 342.172 187.301 342.172 258.715C342.172 330.129 284.073 388.228 212.659 388.228V388.228ZM212.659 144.641C149.758 144.641 98.585 195.814 98.585 258.715C98.585 321.616 149.758 372.789 212.659 372.789C275.56 372.789 326.733 321.616 326.733 258.715C326.733 195.814 275.56 144.641 212.659 144.641Z" fill="#2B4D66"/>
</g>
<defs>
<clipPath id="clip0">
<rect width="512" height="512" fill="white"/>
</clipPath>
</defs>
</svg>
