<svg width="43" height="44" viewBox="0 0 43 44" fill="none" xmlns="http://www.w3.org/2000/svg">
<path fill-rule="evenodd" clip-rule="evenodd" d="M21.3871 21.9414C21.3871 18.9936 23.7767 16.604 26.7245 16.604C29.6722 16.604 32.0618 18.9936 32.0618 21.9414C32.0618 24.8891 29.6722 27.2788 26.7245 27.2788C23.7767 27.2788 21.3871 24.8891 21.3871 21.9414Z" fill="#1ABCFE"/>
<path fill-rule="evenodd" clip-rule="evenodd" d="M10.7123 32.6162C10.7123 29.6684 13.1019 27.2788 16.0497 27.2788H21.387V32.6162C21.387 35.5639 18.9974 37.9536 16.0497 37.9536C13.1019 37.9536 10.7123 35.5639 10.7123 32.6162Z" fill="#0ACF83"/>
<path fill-rule="evenodd" clip-rule="evenodd" d="M21.3871 5.9292V16.604H26.7245C29.6722 16.604 32.0618 14.2143 32.0618 11.2666C32.0618 8.31883 29.6722 5.9292 26.7245 5.9292H21.3871Z" fill="#FF7262"/>
<path fill-rule="evenodd" clip-rule="evenodd" d="M10.7123 11.2666C10.7123 14.2143 13.1019 16.604 16.0497 16.604H21.387V5.9292H16.0497C13.1019 5.9292 10.7123 8.31883 10.7123 11.2666Z" fill="#F24E1E"/>
<path fill-rule="evenodd" clip-rule="evenodd" d="M10.7123 21.9414C10.7123 24.8891 13.1019 27.2788 16.0497 27.2788H21.387V16.604H16.0497C13.1019 16.604 10.7123 18.9936 10.7123 21.9414Z" fill="#A259FF"/>
</svg>
