<svg width="512" height="512" viewBox="0 0 512 512" fill="none" xmlns="http://www.w3.org/2000/svg">
<path d="M215.155 214.043L360.122 89.647L366.5 62.697C327.767 23.963 274.262 0 215.155 0C96.9431 0 1.11206 95.83 1.11206 214.043L33.6451 231.904L215.155 214.043Z" fill="#DD636E"/>
<path d="M215.155 214.043H1.11206C1.11206 249.167 9.57206 282.315 24.5661 311.56L215.155 214.043Z" fill="#FCEED9"/>
<path d="M24.5662 311.56C60.0352 380.742 132.066 428.086 215.155 428.086V214.043L24.5662 311.56Z" fill="#F9C301"/>
<path d="M215.155 214.043L366.507 62.6924C405.241 101.426 429.199 154.937 429.199 214.043C429.199 332.256 333.369 428.086 215.156 428.086V214.043H215.155Z" fill="#1690FB"/>
<path d="M508.25 489.685L488.573 509.362C485.058 512.877 479.36 512.877 475.845 509.362L398.738 432.255L431.143 399.85L508.25 476.957C511.764 480.472 511.764 486.17 508.25 489.685V489.685Z" fill="#9D6B6B"/>
<path d="M508.253 476.96L431.143 399.85L417.673 413.32L480.682 476.329C484.543 480.19 484.543 486.451 480.682 490.312L468.739 502.255L475.849 509.365C479.362 512.878 485.057 512.878 488.57 509.365L508.254 489.681C511.766 486.168 511.766 480.473 508.253 476.96V476.96Z" fill="#785252"/>
<path d="M362.468 468.852C420.608 468.852 467.74 421.72 467.74 363.58C467.74 305.439 420.608 258.308 362.468 258.308C304.328 258.308 257.196 305.439 257.196 363.58C257.196 421.72 304.328 468.852 362.468 468.852Z" fill="#D8EAFB"/>
<path d="M362.468 476.469C333.545 476.469 304.624 465.46 282.605 443.442C238.57 399.406 238.57 327.754 282.605 283.718C326.643 239.681 398.294 239.683 442.331 283.718C486.366 327.754 486.366 399.406 442.331 443.442C420.312 465.46 391.389 476.469 362.468 476.469ZM362.468 266.024C337.474 266.024 312.481 275.538 293.453 294.565C255.398 332.62 255.398 394.54 293.453 432.595C331.506 470.649 393.428 470.649 431.483 432.595C469.538 394.54 469.538 332.62 431.483 294.565C412.455 275.537 387.461 266.024 362.468 266.024V266.024Z" fill="#785252"/>
</svg>
