<svg width="512" height="512" viewBox="0 0 512 512" fill="none" xmlns="http://www.w3.org/2000/svg">
<g clip-path="url(#clip0)">
<path d="M134.346 338.555H74.473C33.343 338.555 0 371.898 0 413.028V480.346C0 486.145 4.701 490.846 10.5 490.846H198.319C204.118 490.846 208.819 486.145 208.819 480.346V413.028C208.819 371.898 175.476 338.555 134.346 338.555Z" fill="#EBEEF2"/>
<path d="M113.301 338.555H95.518L72.595 416.471C71.571 419.953 72.506 423.716 75.042 426.313L97.231 449.039C101.168 453.071 107.653 453.071 111.59 449.039L133.779 426.313C136.314 423.716 137.25 419.953 136.226 416.471L113.301 338.555Z" fill="#ED5575"/>
<path d="M104.409 95.2051C57.458 95.2051 19.397 133.266 19.397 180.217V221.203C19.397 268.154 57.459 306.215 104.409 306.215C151.36 306.215 189.421 268.154 189.421 221.203V180.217C189.421 133.266 151.36 95.2051 104.409 95.2051Z" fill="#F9C295"/>
<path d="M159.721 115.7C159.722 115.697 159.723 115.693 159.723 115.69C104.934 68.7428 19.397 107.508 19.397 180.217V188.076C31.915 193.599 45.747 196.689 60.309 196.689C90.213 196.689 117.08 183.739 135.652 163.16C147.395 181.255 166.877 193.864 189.421 196.265C188.204 189.402 196.759 147.46 159.721 115.7Z" fill="#444966"/>
<path d="M114.449 253.543H104.408C100.059 253.543 96.533 250.018 96.533 245.668V219.426C96.533 215.076 100.059 211.551 104.408 211.551C108.757 211.551 112.283 215.076 112.283 219.426V237.793H114.449C118.798 237.793 122.324 241.318 122.324 245.668C122.324 250.018 118.799 253.543 114.449 253.543Z" fill="#E59F6A"/>
<path d="M453.7 446.562C453.134 444.27 451.521 442.378 449.347 441.457L365.991 406.111C362.403 404.592 358.244 406.072 356.428 409.521C343.243 434.552 325.901 456.873 304.883 475.861C302.581 477.941 301.797 481.224 302.911 484.12C304.025 487.016 306.807 488.927 309.911 488.927H414.009C415.793 488.927 417.519 488.291 418.876 487.133C431.021 476.775 442.242 465.326 452.227 453.109C453.721 451.28 454.267 448.854 453.7 446.562Z" fill="#ED5575"/>
<path d="M236.518 21.1615C229.261 21.4645 222.009 22.0575 214.962 22.9275C188.03 26.2435 161.95 33.5895 137.448 44.7595C134.214 46.2335 132.459 49.7755 133.244 53.2405C134.029 56.7065 137.1 59.1215 140.693 59.0825C167.515 58.6005 194.047 62.6225 219.529 71.0335C220.307 71.2905 221.1 71.4135 221.88 71.4135C224.816 71.4135 227.581 69.6785 228.785 66.8395L243.735 31.5825C244.739 29.2155 244.46 26.4985 242.996 24.3845C241.532 22.2705 239.09 21.0325 236.518 21.1615Z" fill="#9FD479"/>
<path d="M405.457 73.3862C369.05 46.2492 326.134 28.8532 281.35 23.0792C278.016 22.6462 274.799 24.4932 273.486 27.5902L252.557 76.9482C251.035 80.5382 252.517 84.6952 255.967 86.5112C281.364 99.8872 303.95 117.519 323.097 138.916C324.572 140.564 326.622 141.415 328.69 141.415C330.268 141.415 331.855 140.919 333.203 139.903L405.491 85.3872C407.376 83.9652 408.482 81.7392 408.475 79.3782C408.468 77.0182 407.35 74.7982 405.457 73.3862Z" fill="#9FD479"/>
<path d="M511.741 274.199C511.649 272.11 510.688 270.154 509.092 268.803C507.496 267.452 505.408 266.827 503.332 267.086L390.265 281.013C386.39 281.49 383.529 284.861 383.688 288.762C384.862 317.52 380.903 345.892 371.923 373.09C370.699 376.797 372.523 380.822 376.117 382.347L467.181 420.961C468.133 421.364 469.126 421.557 470.105 421.557C472.714 421.557 475.226 420.191 476.603 417.807C501.813 374.158 513.963 324.499 511.741 274.199Z" fill="#F2DF33"/>
<path d="M386.182 255.432C386.487 255.432 386.796 255.413 387.106 255.374L500.173 241.447C502.248 241.192 504.123 240.081 505.344 238.384C506.566 236.687 507.023 234.556 506.605 232.507C496.556 183.172 472.719 137.945 437.669 101.717C435.037 98.9945 430.787 98.6615 427.763 100.944L348.79 160.502C345.674 162.853 344.881 167.201 346.968 170.5C362.281 194.706 373.005 221.27 378.844 249.453C379.574 252.97 382.673 255.432 386.182 255.432Z" fill="#F2DF33"/>
<path d="M443.761 352.276C445.67 349.916 445.305 346.455 442.945 344.546C442.528 344.209 442.071 343.968 441.6 343.771L441.608 343.747C431.465 339.507 294.819 282.385 255.529 265.961L255.525 265.972C247.021 262.413 236.858 264.685 230.766 272.214C223.37 281.354 224.784 294.76 233.925 302.156C236.452 304.2 239.308 305.548 242.27 306.269L242.263 306.29C283.631 316.397 427.504 351.549 438.183 354.159L438.188 354.143C440.189 354.629 442.38 353.983 443.761 352.276Z" fill="#5C9CEE"/>
<path d="M247.32 323.289C268.13 323.289 284.999 306.419 284.999 285.61C284.999 264.8 268.13 247.931 247.32 247.931C226.51 247.931 209.641 264.8 209.641 285.61C209.641 306.419 226.51 323.289 247.32 323.289Z" fill="#EBEEF2"/>
</g>
<defs>
<clipPath id="clip0">
<rect width="511.999" height="511.999" fill="white"/>
</clipPath>
</defs>
</svg>
