<svg width="43" height="43" viewBox="0 0 43 43" fill="none" xmlns="http://www.w3.org/2000/svg">
<circle cx="21.7027" cy="21.5521" r="20.739" fill="#8892BF"/>
<path d="M19.8365 13.3247H21.8452L21.2775 16.3427H23.0824C24.0722 16.3638 24.8095 16.585 25.2948 17.0063C25.7897 17.4275 25.9353 18.2283 25.7315 19.408L24.7563 24.6697H22.7185L23.65 19.645C23.747 19.1182 23.7179 18.7444 23.5627 18.5232C23.4075 18.302 23.0728 18.1914 22.5584 18.1914L20.9427 18.1756L19.7492 24.6697H17.7405L19.8365 13.3247Z" fill="white"/>
<path fill-rule="evenodd" clip-rule="evenodd" d="M10.6325 16.3427H14.5333C15.6783 16.3532 16.508 16.7115 17.0223 17.4172C17.5367 18.1228 17.7065 19.0867 17.5318 20.3087C17.4639 20.8671 17.3135 21.4148 17.0806 21.952C16.8573 22.4892 16.547 22.9737 16.149 23.4057C15.6637 23.9533 15.1447 24.301 14.5916 24.4485C14.0385 24.5961 13.4658 24.6697 12.874 24.6697H11.1274L10.5742 27.6719H8.55103L10.6325 16.3427ZM11.4621 22.8842L12.3326 18.1598H12.6266C12.7334 18.1598 12.8449 18.1544 12.9613 18.144C13.7377 18.1336 14.3828 18.2126 14.8972 18.381C15.4212 18.5495 15.5959 19.1869 15.4212 20.2929C15.2078 21.6098 14.7904 22.3786 14.1695 22.5998C13.5485 22.8106 12.7721 22.9105 11.8406 22.9H11.6368C11.5786 22.9 11.5204 22.8947 11.4621 22.8842Z" fill="white"/>
<path fill-rule="evenodd" clip-rule="evenodd" d="M31.7893 16.3427H27.8885L25.807 27.6719H27.8302L28.3833 24.6697H30.13C30.7218 24.6697 31.2944 24.5961 31.8476 24.4485C32.4007 24.301 32.9197 23.9533 33.405 23.4057C33.8029 22.9737 34.1133 22.4892 34.3365 21.952C34.5694 21.4148 34.7199 20.8671 34.7878 20.3087C34.9624 19.0867 34.7927 18.1228 34.2783 17.4172C33.7639 16.7115 32.9343 16.3532 31.7893 16.3427ZM29.5885 18.1598L28.7181 22.8842C28.7763 22.8947 28.8346 22.9 28.8928 22.9H29.0966C30.0281 22.9105 30.8045 22.8106 31.4254 22.5998C32.0464 22.3786 32.4638 21.6098 32.6772 20.2929C32.8519 19.1869 32.6772 18.5495 32.1532 18.381C31.6388 18.2126 30.9937 18.1336 30.2173 18.144C30.1009 18.1544 29.9894 18.1598 29.8826 18.1598H29.5885Z" fill="white"/>
</svg>
