<svg height="512pt" viewBox="0 -83 512 512" width="512pt" xmlns="http://www.w3.org/2000/svg"><path d="m487.226562 346.839844h-132.128906c-13.683594 0-24.773437-11.09375-24.773437-24.777344v-297.289062c0-13.679688 11.089843-24.773438 24.773437-24.773438h132.128906c13.679688 0 24.773438 11.09375 24.773438 24.773438v297.289062c0 13.683594-11.09375 24.777344-24.773438 24.777344zm0 0" fill="#6f6571"/><path d="m371.613281 330.320312c-13.683593 0-24.773437-11.089843-24.773437-24.773437v-304.140625c-9.601563 3.414062-16.515625 12.597656-16.515625 23.367188v297.289062c0 13.683594 11.089843 24.777344 24.773437 24.777344h132.128906c10.769532 0 19.957032-6.917969 23.367188-16.519532zm0 0" fill="#5d5360"/><path d="m487.226562 313.804688h-132.128906c-4.5625 0-8.257812-3.695313-8.257812-8.257813v-280.773437c0-4.558594 3.695312-8.257813 8.257812-8.257813h132.128906c4.558594 0 8.257813 3.699219 8.257813 8.257813v280.773437c0 4.5625-3.699219 8.257813-8.257813 8.257813zm0 0" fill="#fff"/><path d="m156.902344 346.839844h-132.128906c-13.679688 0-24.773438-11.09375-24.773438-24.777344v-297.289062c0-13.679688 11.09375-24.773438 24.773438-24.773438h132.128906c13.683594 0 24.773437 11.09375 24.773437 24.773438v297.289062c0 13.683594-11.089843 24.777344-24.773437 24.777344zm0 0" fill="#6f6571"/><path d="m41.289062 330.320312c-13.679687 0-24.773437-11.089843-24.773437-24.773437v-304.144531c-9.601563 3.414062-16.515625 12.601562-16.515625 23.371094v297.289062c0 13.683594 11.09375 24.777344 24.773438 24.777344h132.128906c10.773437 0 19.957031-6.917969 23.367187-16.519532zm0 0" fill="#5d5360"/><path d="m156.902344 313.804688h-132.128906c-4.558594 0-8.257813-3.695313-8.257813-8.257813v-280.773437c0-4.558594 3.699219-8.257813 8.257813-8.257813h132.128906c4.5625 0 8.257812 3.699219 8.257812 8.257813v280.773437c0 4.5625-3.695312 8.257813-8.257812 8.257813zm0 0" fill="#fff"/><path d="m140.386719 173.417969h-99.097657c-4.5625 0-8.257812 3.699219-8.257812 8.257812v99.097657c0 4.5625 3.695312 8.257812 8.257812 8.257812h99.097657c4.566406 0 8.257812-3.695312 8.257812-8.257812v-99.097657c0-4.558593-3.691406-8.257812-8.257812-8.257812zm-61.226563 57.808593-29.613281 29.613282v-59.226563zm-17.933594-41.292968h59.226563l-29.613281 29.613281zm29.613282 52.96875 29.613281 29.613281h-59.226563zm11.675781-11.675782 29.613281-29.613281v59.226563zm0 0" fill="#b3e59f"/><path d="m470.710938 181.675781h-57.808594c-4.5625 0-8.257813-3.695312-8.257813-8.257812 0-4.558594 3.695313-8.257813 8.257813-8.257813h57.808594c4.5625 0 8.257812 3.699219 8.257812 8.257813 0 4.5625-3.695312 8.257812-8.257812 8.257812zm0 0" fill="#ada7ae"/><path d="m470.710938 214.710938h-57.808594c-4.5625 0-8.257813-3.699219-8.257813-8.261719 0-4.558594 3.695313-8.257813 8.257813-8.257813h57.808594c4.5625 0 8.257812 3.699219 8.257812 8.257813 0 4.5625-3.695312 8.261719-8.257812 8.261719zm0 0" fill="#ada7ae"/><path d="m470.710938 280.773438h-57.808594c-4.5625 0-8.257813-3.699219-8.257813-8.257813s3.695313-8.257813 8.257813-8.257813h57.808594c4.5625 0 8.257812 3.699219 8.257812 8.257813s-3.695312 8.257813-8.257812 8.257813zm0 0" fill="#ada7ae"/><path d="m470.710938 247.742188h-57.808594c-4.5625 0-8.257813-3.699219-8.257813-8.257813s3.695313-8.257813 8.257813-8.257813h57.808594c4.5625 0 8.257812 3.699219 8.257812 8.257813s-3.695312 8.257813-8.257812 8.257813zm0 0" fill="#ada7ae"/><g fill="#b3e59f"><path d="m379.871094 181.675781h-8.257813c-4.566406 0-8.257812-3.695312-8.257812-8.257812 0-4.558594 3.695312-8.257813 8.257812-8.257813h8.257813c4.566406 0 8.257812 3.699219 8.257812 8.257813 0 4.5625-3.695312 8.257812-8.257812 8.257812zm0 0"/><path d="m379.871094 214.710938h-8.257813c-4.566406 0-8.257812-3.699219-8.257812-8.261719 0-4.558594 3.695312-8.257813 8.257812-8.257813h8.257813c4.566406 0 8.257812 3.699219 8.257812 8.257813 0 4.5625-3.695312 8.261719-8.257812 8.261719zm0 0"/><path d="m379.871094 280.773438h-8.257813c-4.566406 0-8.257812-3.699219-8.257812-8.257813s3.695312-8.257813 8.257812-8.257813h8.257813c4.566406 0 8.257812 3.699219 8.257812 8.257813s-3.695312 8.257813-8.257812 8.257813zm0 0"/><path d="m379.871094 247.742188h-8.257813c-4.566406 0-8.257812-3.699219-8.257812-8.257813s3.695312-8.257813 8.257812-8.257813h8.257813c4.566406 0 8.257812 3.699219 8.257812 8.257813s-3.695312 8.257813-8.257812 8.257813zm0 0"/></g><path d="m301.539062 166.339844-41.289062-24.777344c-3.910156-2.347656-8.984375-1.074219-11.332031 2.832031-2.347657 3.910157-1.078125 8.984375 2.832031 11.332031l15.726562 9.433594h-52.765624c-4.566407 0-8.257813 3.699219-8.257813 8.257813 0 4.5625 3.691406 8.257812 8.257813 8.257812h52.765624l-15.726562 9.4375c-3.910156 2.347657-5.175781 7.417969-2.828125 11.328125 1.546875 2.582032 4.28125 4.007813 7.085937 4.007813 1.445313 0 2.914063-.378907 4.242188-1.175781l41.289062-24.773438c2.484376-1.492188 4.011719-4.179688 4.011719-7.082031 0-2.898438-1.527343-5.589844-4.011719-7.078125zm0 0" fill="#ada7ae"/><path d="m140.386719 41.289062h-99.097657c-4.5625 0-8.257812 3.699219-8.257812 8.257813v99.097656c0 4.558594 3.695312 8.257813 8.257812 8.257813h99.097657c4.566406 0 8.257812-3.699219 8.257812-8.257813v-99.097656c0-4.558594-3.691406-8.257813-8.257812-8.257813zm-61.226563 57.808594-29.613281 29.613282v-59.226563zm-17.933594-41.292968h59.226563l-29.613281 29.613281zm29.613282 52.96875 29.613281 29.613281h-59.226563zm11.675781-11.675782 29.613281-29.613281v59.226563zm0 0" fill="#a4ccff"/><path d="m470.710938 140.386719h-99.097657c-4.5625 0-8.257812-3.695313-8.257812-8.257813v-82.582031c0-4.558594 3.695312-8.257813 8.257812-8.257813h99.097657c4.558593 0 8.257812 3.699219 8.257812 8.257813v82.582031c0 4.558594-3.699219 8.257813-8.257812 8.257813zm0 0" fill="#a4ccff"/><path d="m429.417969 123.871094c-27.363281 0-49.546875-22.183594-49.546875-49.546875v-33.035157h-8.257813c-4.5625 0-8.257812 3.699219-8.257812 8.261719v82.578125c0 4.5625 3.695312 8.257813 8.257812 8.257813h99.097657c4.558593 0 8.257812-3.695313 8.257812-8.257813v-8.257812zm0 0" fill="#8bb3ea"/></svg>