<svg width="42" height="36" viewBox="0 0 42 36" fill="none" xmlns="http://www.w3.org/2000/svg">
<path d="M24.6225 17.5194C24.6225 15.5897 23.0091 14.0253 21.0187 14.0253C19.0285 14.0253 17.4149 15.5897 17.4149 17.5194C17.4149 19.4493 19.0285 21.0137 21.0187 21.0137C23.0091 21.0137 24.6225 19.4493 24.6225 17.5194Z" fill="#53C1DE"/>
<path fill-rule="evenodd" clip-rule="evenodd" d="M32.7229 11.0323C33.484 8.03384 34.4407 2.47348 31.0683 0.588343C27.7118 -1.28858 23.3439 2.30794 21.0375 4.46675C18.7377 2.32945 14.2472 -1.25169 10.8777 0.63943C7.52242 2.52264 8.55711 7.99081 9.33501 11.0081C6.20515 11.87 0.839844 13.7265 0.839844 17.5194C0.839844 21.3016 6.19957 23.3214 9.3109 24.1825C8.53011 27.2164 7.54724 32.6065 10.9068 34.4855C14.2888 36.3763 18.7654 32.8804 21.0932 30.698C23.4144 32.8694 27.7404 36.3882 31.0976 34.504C34.4654 32.6138 33.5882 27.1279 32.8103 24.0931C35.8263 23.2302 41.1976 21.2544 41.1976 17.5194C41.1976 13.7629 35.8035 11.8914 32.7229 11.0323ZM32.3407 22.4848C31.8299 20.9171 31.1405 19.2499 30.2971 17.5277C31.1021 15.8462 31.7647 14.2005 32.2612 12.6428C34.5196 13.2776 39.4736 14.7285 39.4736 17.5194C39.4736 20.3365 34.7197 21.8011 32.3407 22.4848ZM30.2337 33.0573C27.7289 34.4631 24.0081 31.0981 22.2938 29.4989C23.431 28.2929 24.5675 26.8909 25.6766 25.3341C27.6278 25.1663 29.471 24.8918 31.1426 24.5172C31.6901 26.6638 32.7497 31.6451 30.2337 33.0573ZM11.7682 33.0372C9.26308 31.6367 10.4081 26.8269 10.9825 24.592C12.6355 24.9465 14.4654 25.2016 16.4211 25.3554C17.5376 26.8788 18.707 28.2791 19.8854 29.5053C18.4294 30.8709 14.285 34.4442 11.7682 33.0372ZM2.56378 17.5194C2.56378 14.6918 7.4882 13.2515 9.79797 12.6182C10.3031 14.2109 10.9655 15.8762 11.765 17.5601C10.9552 19.2692 10.2832 20.9609 9.7735 22.5723C7.5711 21.9611 2.56378 20.3488 2.56378 17.5194ZM11.7414 2.08613C14.2568 0.674444 18.1597 4.11247 19.8294 5.65992C18.657 6.88063 17.4983 8.27035 16.3915 9.78493C14.4934 9.95551 12.6764 10.2295 11.0061 10.5964C10.3794 8.16289 9.22876 3.49629 11.7414 2.08613ZM26.9099 11.6019C28.1977 11.7595 29.4314 11.969 30.5898 12.2255C30.2421 13.3063 29.8086 14.4364 29.2981 15.5949C28.5581 14.2334 27.7637 12.8994 26.9099 11.6019ZM21.038 6.85448C21.8332 7.6897 22.6296 8.62242 23.413 9.63427C21.8239 9.56147 20.2321 9.56112 18.643 9.63323C19.4271 8.63073 20.2303 7.6994 21.038 6.85448ZM12.7541 15.5937C12.2521 14.4392 11.8225 13.304 11.4717 12.2078C12.6232 11.9579 13.8511 11.7538 15.1305 11.5988C14.2744 12.8934 13.4814 14.227 12.7541 15.5937ZM15.1673 23.5594C13.8456 23.4163 12.5991 23.2226 11.448 22.9796C11.8043 21.864 12.2433 20.7044 12.7561 19.5251C13.4934 20.9059 14.2985 22.2525 15.1673 23.5594ZM21.0857 28.3025C20.2686 27.4475 19.4536 26.502 18.6575 25.4849C20.2557 25.5458 21.857 25.5459 23.4549 25.4768C22.6691 26.5124 21.8755 27.4593 21.0857 28.3025ZM29.3146 19.465C29.854 20.6572 30.3087 21.8105 30.6698 22.9072C29.4996 23.1661 28.2363 23.3746 26.9051 23.5294C27.7652 22.2074 28.5721 20.8526 29.3146 19.465ZM24.7145 23.732C22.27 23.9014 19.8101 23.8996 17.3647 23.7459C15.9752 21.7779 14.7383 19.7082 13.6706 17.5596C14.7331 15.4154 15.961 13.3498 17.344 11.3849C19.7912 11.2055 22.2534 11.2051 24.7006 11.3859C26.0716 13.3507 27.2977 15.411 28.3849 17.5359C27.3106 19.679 26.0762 21.7488 24.7145 23.732ZM30.2072 2.03643C32.7233 3.44349 31.6033 8.44075 31.0537 10.6137C29.3794 10.2392 27.5611 9.96036 25.6575 9.78719C24.5486 8.25615 23.3996 6.864 22.2461 5.65906C23.9373 4.07828 27.7155 0.643132 30.2072 2.03643Z" fill="#53C1DE"/>
</svg>
