<svg width="512" height="512" viewBox="0 0 512 512" fill="none" xmlns="http://www.w3.org/2000/svg">
<g clip-path="url(#clip0)">
<path d="M245 11C194.02 11 146.68 26.5781 107.469 53.2227V458.777C146.68 485.426 194.02 501 245 501C380.309 501 490 391.309 490 256C490 120.691 380.309 11 245 11Z" fill="#27A3FF"/>
<path d="M336.809 483.199H153.191C181.547 494.676 212.531 501 245 501C277.469 501 308.453 494.676 336.809 483.199V483.199Z" fill="#27A3FF"/>
<path d="M118.648 415.52L116.582 376.969H31.9102C51.3477 411.133 78.7617 440.16 111.617 461.527H132.895L129.863 455.836C123.234 443.375 119.406 429.617 118.648 415.52V415.52Z" fill="#27A3FF"/>
<path d="M283.488 27.8008C278.938 27.8008 224.738 27.8008 155.676 27.8008C118.348 42.4219 85.4844 65.9414 59.6875 95.7461L3.77734 298.992C5.36719 307.953 7.4375 316.75 9.97266 325.348L61.6406 325.02L301.566 326.551V45.8789C301.566 35.9336 293.434 27.8008 283.488 27.8008V27.8008Z" fill="#2B3894"/>
<path d="M0 256C0 270.68 1.29688 285.059 3.76953 299.027H275.414C276.191 299.027 276.82 298.395 276.82 297.617V121.289H40.3477C14.8516 159.941 0 206.234 0 256H0Z" fill="#E6F7FE"/>
<path d="M32.9648 378.801H283.488C293.434 378.801 301.566 370.668 301.566 360.723V323.812C289.008 323.812 138.977 323.812 9.51562 323.812C15.1016 343.242 23.0234 361.68 32.9648 378.801V378.801Z" fill="#27A3FF"/>
<path d="M39.0312 123.289H276.82V95.1133H60.2344C52.5156 103.969 45.4258 113.383 39.0312 123.289Z" fill="#D5F1FE"/>
<path d="M274.637 52.543H108.469C90.3477 64.7266 73.9414 79.2656 59.6953 95.7227H276.82V54.7305C276.82 53.5469 275.82 52.543 274.637 52.543V52.543Z" fill="#615DF9"/>
<path d="M177.617 81.6328C181.762 81.6328 185.117 78.2773 185.117 74.1328C185.117 69.9922 181.762 66.6328 177.617 66.6328H89.543C83.7695 71.3789 78.2227 76.3906 72.9102 81.6328H177.617Z" fill="#8181FC"/>
<path d="M152.672 74.1328C152.672 69.9922 156.031 66.6328 160.172 66.6328H89.543C83.7695 71.3789 78.2227 76.3906 72.9102 81.6328H160.172C156.031 81.6328 152.672 78.2773 152.672 74.1328Z" fill="#8181FC"/>
<path d="M247.266 81.6328H208.121C203.977 81.6328 200.621 78.2773 200.621 74.1328C200.621 69.9922 203.977 66.6328 208.121 66.6328H247.266C251.406 66.6328 254.766 69.9922 254.766 74.1328C254.766 78.2773 251.406 81.6328 247.266 81.6328Z" fill="#8181FC"/>
<path d="M465.449 214.309H137.684C128.598 214.309 121.164 221.742 121.164 230.828V458.453H481.969V230.828C481.969 221.742 474.535 214.309 465.449 214.309V214.309Z" fill="#2B3894"/>
<path d="M225.84 214.309H137.684C128.598 214.309 121.164 221.742 121.164 230.828V458.453H218.609V225.309C218.609 220.402 221.598 216.164 225.84 214.309Z" fill="#2B3894"/>
<path d="M135.121 296.027H468.008V458.453H135.121V296.027Z" fill="#E6F7FE"/>
<path d="M135.121 296.027H218.609V458.453H135.121V296.027Z" fill="#D5F1FE"/>
<path d="M465.824 228.27H137.309C136.125 228.27 135.125 229.27 135.125 230.453V271.449H468.012V230.453C468.008 229.27 467.008 228.27 465.824 228.27V228.27Z" fill="#615DF9"/>
<path d="M137.309 228.27C136.125 228.27 135.121 229.27 135.121 230.453V271.449H218.609V228.27H137.309Z" fill="#615DF9"/>
<path d="M159.34 257.363C155.215 257.363 151.84 253.992 151.84 249.863C151.84 246.429 154.199 243.269 157.879 242.503C162.535 241.589 166.84 245.14 166.84 249.863C166.84 254.093 163.363 257.363 159.34 257.363Z" fill="#F948B4"/>
<path d="M179.859 257.364C175.816 257.364 172.359 254.078 172.359 249.864C172.359 245.117 176.695 241.594 181.328 242.504C184.941 243.274 187.359 246.328 187.359 249.864C187.359 254.078 183.883 257.364 179.859 257.364Z" fill="#FECD0A"/>
<path d="M200.367 257.363C196.289 257.363 192.867 254.007 192.867 249.863C192.867 246.476 195.191 243.277 198.91 242.504C203.508 241.578 207.867 245.109 207.867 249.863C207.867 254.015 204.492 257.363 200.367 257.363Z" fill="#39DF74"/>
<path d="M382.949 257.359H226.109C221.969 257.359 218.609 254 218.609 249.859C218.609 245.719 221.969 242.359 226.109 242.359H382.949C387.094 242.359 390.449 245.719 390.449 249.859C390.449 254 387.094 257.359 382.949 257.359Z" fill="#8181FC"/>
<path d="M351.812 249.859C351.812 245.719 355.172 242.359 359.312 242.359H226.109C221.969 242.359 218.609 245.719 218.609 249.859C218.609 254 221.969 257.359 226.109 257.359H359.312C355.172 257.359 351.812 254 351.812 249.859Z" fill="#8181FC"/>
<path d="M441.449 257.359H407.449C403.309 257.359 399.949 254 399.949 249.859C399.949 245.719 403.309 242.359 407.449 242.359H441.449C445.594 242.359 448.949 245.719 448.949 249.859C448.949 254 445.594 257.359 441.449 257.359Z" fill="#8181FC"/>
<path d="M135 270H468V455H135V270Z" fill="#D5F1FE"/>
<path d="M506.816 455.453C498.656 455.453 154.07 455.453 102.699 455.453C118.988 467.094 136.758 476.789 155.676 484.199H480.965C495.938 484.199 505.289 478.219 508.922 476.918C510.793 476.086 512 474.227 512 472.18V460.641C512 457.777 509.68 455.453 506.816 455.453Z" fill="#2B3894"/>
<path d="M105.398 455.453L135.602 475.262C142.133 478.523 148.824 481.516 155.676 484.199H283.301C280.516 483.004 278.562 480.234 278.562 477.012C278.562 472.695 282.063 469.191 286.383 469.191C286.395 469.191 286.402 469.195 286.414 469.195V455.453C207.188 455.453 131.008 455.453 105.398 455.453V455.453Z" fill="#2B3894"/>
<path d="M236.656 455.453V461.449C236.656 466.059 240.426 469.828 245.031 469.828H358.102C362.707 469.828 366.477 466.059 366.477 461.449V455.453C326.094 455.453 279.77 455.453 236.656 455.453V455.453Z" fill="#2B3894"/>
<path d="M182.098 268.383H94.3477C85.832 268.383 78.9023 275.312 78.9023 283.828V436.086C81.832 438.785 84.832 441.414 87.8906 443.977L135.602 475.262C142.133 478.527 148.824 481.516 155.676 484.199H182.098C190.613 484.199 197.539 477.27 197.539 468.758V283.828C197.539 275.312 190.613 268.383 182.098 268.383Z" fill="#3D4EC6"/>
<path d="M121.164 465.793V286.387C120.285 286.652 119.355 286.801 118.391 286.801C113.156 286.801 108.914 282.559 108.914 277.324C108.914 273.184 111.57 269.676 115.27 268.383H94.3477C85.832 268.383 78.9023 275.312 78.9023 283.828V436.086C81.8516 438.805 84.8711 441.441 87.9492 444.012L121.164 465.793Z" fill="#3342AE"/>
<path d="M182.098 277.324H169.055C167.824 277.324 166.828 278.32 166.828 279.551C166.828 282.5 164.414 284.914 161.465 284.914H114.98C112.027 284.914 109.613 282.5 109.613 279.551C109.613 278.32 108.617 277.324 107.391 277.324H94.3477C90.7578 277.324 87.8438 280.234 87.8438 283.828V443.941C102.422 456.145 118.438 466.68 135.602 475.258H182.098C185.688 475.258 188.602 472.348 188.602 468.758C188.602 462.207 188.602 290.539 188.602 283.824C188.602 280.234 185.688 277.324 182.098 277.324V277.324Z" fill="#4FBBFF"/>
<path d="M115.246 284.914H114.977C112.027 284.914 109.613 282.5 109.613 279.551C109.613 278.32 108.617 277.324 107.387 277.324H94.3477C90.7578 277.324 87.8438 280.234 87.8438 283.824V443.941C96.4883 451.18 105.652 457.813 115.246 463.816V284.914Z" fill="#4FBBFF"/>
</g>
<defs>
<clipPath id="clip0">
<rect width="512" height="512" fill="white"/>
</clipPath>
</defs>
</svg>
