<svg width="512" height="512" viewBox="0 0 512 512" fill="none" xmlns="http://www.w3.org/2000/svg">
<path d="M361.931 0H150.069C135.443 0 123.586 11.857 123.586 26.483V485.517C123.586 500.143 135.443 512 150.069 512H361.931C376.557 512 388.414 500.143 388.414 485.517V26.483C388.414 11.857 376.557 0 361.931 0ZM220.69 35.31C220.69 30.435 224.643 26.482 229.518 26.482H282.484C287.359 26.482 291.312 30.435 291.312 35.31C291.312 40.185 287.359 44.138 282.484 44.138H229.518C224.642 44.138 220.69 40.185 220.69 35.31ZM194.207 26.483C199.082 26.483 203.035 30.436 203.035 35.311C203.035 40.186 199.082 44.139 194.207 44.139C189.332 44.139 185.379 40.186 185.379 35.311C185.379 30.436 189.332 26.483 194.207 26.483ZM256 494.345C246.249 494.345 238.345 486.44 238.345 476.69C238.345 466.939 246.249 459.035 256 459.035C265.751 459.035 273.655 466.939 273.655 476.69C273.655 486.44 265.751 494.345 256 494.345ZM370.759 335.448V441.379H141.241V335.448V70.621H370.758V335.448H370.759Z" fill="#707384"/>
<path d="M141.241 335.448H211.862C211.862 330.573 215.815 326.62 220.69 326.62C225.565 326.62 229.518 330.573 229.518 335.448H247.173C247.173 330.573 251.126 326.62 256.001 326.62C260.876 326.62 264.829 330.573 264.829 335.448H282.484C282.484 330.573 286.437 326.62 291.312 326.62C296.187 326.62 300.14 330.573 300.14 335.448H370.761V70.6211H141.241V335.448ZM300.138 114.759C300.138 109.884 304.091 105.931 308.966 105.931H344.276C349.151 105.931 353.104 109.884 353.104 114.759V150.069C353.104 154.944 349.151 158.897 344.276 158.897H308.966C304.091 158.897 300.138 154.944 300.138 150.069V114.759ZM300.138 185.379C300.138 180.504 304.091 176.551 308.966 176.551H344.276C349.151 176.551 353.104 180.504 353.104 185.379V220.689C353.104 225.564 349.151 229.517 344.276 229.517H308.966C304.091 229.517 300.138 225.564 300.138 220.689V185.379ZM300.138 256C300.138 251.125 304.091 247.172 308.966 247.172H344.276C349.151 247.172 353.104 251.125 353.104 256V291.31C353.104 296.185 349.151 300.138 344.276 300.138H308.966C304.091 300.138 300.138 296.185 300.138 291.31V256ZM229.517 114.759C229.517 109.884 233.47 105.931 238.345 105.931H273.655C278.53 105.931 282.483 109.884 282.483 114.759V150.069C282.483 154.944 278.53 158.897 273.655 158.897H238.345C233.47 158.897 229.517 154.944 229.517 150.069V114.759V114.759ZM229.517 185.379C229.517 180.504 233.47 176.551 238.345 176.551H273.655C278.53 176.551 282.483 180.504 282.483 185.379V220.689C282.483 225.564 278.53 229.517 273.655 229.517H238.345C233.47 229.517 229.517 225.564 229.517 220.689V185.379V185.379ZM229.517 256C229.517 251.125 233.47 247.172 238.345 247.172H273.655C278.53 247.172 282.483 251.125 282.483 256V291.31C282.483 296.185 278.53 300.138 273.655 300.138H238.345C233.47 300.138 229.517 296.185 229.517 291.31V256V256ZM158.897 114.759C158.897 109.884 162.85 105.931 167.725 105.931H203.035C207.91 105.931 211.863 109.884 211.863 114.759V150.069C211.863 154.944 207.91 158.897 203.035 158.897H167.725C162.85 158.897 158.897 154.944 158.897 150.069V114.759ZM158.897 185.379C158.897 180.504 162.85 176.551 167.725 176.551H203.035C207.91 176.551 211.863 180.504 211.863 185.379V220.689C211.863 225.564 207.91 229.517 203.035 229.517H167.725C162.85 229.517 158.897 225.564 158.897 220.689V185.379ZM158.897 256C158.897 251.125 162.85 247.172 167.725 247.172H203.035C207.91 247.172 211.863 251.125 211.863 256V291.31C211.863 296.185 207.91 300.138 203.035 300.138H167.725C162.85 300.138 158.897 296.185 158.897 291.31V256Z" fill="#63AFDB"/>
<path d="M291.31 344.276C286.435 344.276 282.482 340.323 282.482 335.448H264.827C264.827 340.323 260.874 344.276 255.999 344.276C251.124 344.276 247.171 340.323 247.171 335.448H229.516C229.516 340.323 225.563 344.276 220.688 344.276C215.813 344.276 211.86 340.323 211.86 335.448H141.239V441.379H370.756V335.448H300.135C300.138 340.323 296.185 344.276 291.31 344.276ZM211.862 406.069C211.862 410.944 207.909 414.897 203.034 414.897H167.724C162.849 414.897 158.896 410.944 158.896 406.069V370.759C158.896 365.884 162.849 361.931 167.724 361.931H203.034C207.909 361.931 211.862 365.884 211.862 370.759V406.069ZM282.483 406.069C282.483 410.944 278.53 414.897 273.655 414.897H238.345C233.47 414.897 229.517 410.944 229.517 406.069V370.759C229.517 365.884 233.47 361.931 238.345 361.931H273.655C278.53 361.931 282.483 365.884 282.483 370.759V406.069ZM308.966 361.931H344.276C349.151 361.931 353.104 365.884 353.104 370.759V406.069C353.104 410.944 349.151 414.897 344.276 414.897H308.966C304.091 414.897 300.138 410.944 300.138 406.069V370.759C300.138 365.884 304.09 361.931 308.966 361.931Z" fill="#468CBE"/>
<path d="M229.517 44.1384H282.483C287.358 44.1384 291.311 40.1854 291.311 35.3104C291.311 30.4354 287.358 26.4824 282.483 26.4824H229.517C224.642 26.4824 220.689 30.4354 220.689 35.3104C220.69 40.1854 224.642 44.1384 229.517 44.1384Z" fill="#464655"/>
<path d="M194.207 44.1384C199.083 44.1384 203.035 40.186 203.035 35.3104C203.035 30.4349 199.083 26.4824 194.207 26.4824C189.331 26.4824 185.379 30.4349 185.379 35.3104C185.379 40.186 189.331 44.1384 194.207 44.1384Z" fill="#464655"/>
<path d="M256 494.345C265.751 494.345 273.655 486.441 273.655 476.69C273.655 466.94 265.751 459.035 256 459.035C246.249 459.035 238.345 466.94 238.345 476.69C238.345 486.441 246.249 494.345 256 494.345Z" fill="#464655"/>
<path d="M273.655 361.931H238.345C233.47 361.931 229.517 365.884 229.517 370.759V406.069C229.517 410.944 233.47 414.897 238.345 414.897H273.655C278.53 414.897 282.483 410.944 282.483 406.069V370.759C282.483 365.884 278.53 361.931 273.655 361.931ZM256 406.069C246.249 406.069 238.345 398.164 238.345 388.414C238.345 378.663 246.249 370.759 256 370.759C265.751 370.759 273.655 378.663 273.655 388.414C273.655 398.164 265.751 406.069 256 406.069Z" fill="#63AFDB"/>
<path d="M300.138 406.069C300.138 410.944 304.091 414.897 308.966 414.897H344.276C349.151 414.897 353.104 410.944 353.104 406.069V370.759C353.104 365.884 349.151 361.931 344.276 361.931H308.966C304.091 361.931 300.138 365.884 300.138 370.759V406.069Z" fill="#FF6469"/>
<path d="M203.034 361.931H167.724C162.849 361.931 158.896 365.884 158.896 370.759V406.069C158.896 410.944 162.849 414.897 167.724 414.897H203.034C207.909 414.897 211.862 410.944 211.862 406.069V370.759C211.862 365.884 207.91 361.931 203.034 361.931Z" fill="#00DCCD"/>
<path d="M238.345 300.138H273.655C278.53 300.138 282.483 296.185 282.483 291.31V256C282.483 251.125 278.53 247.172 273.655 247.172H238.345C233.47 247.172 229.517 251.125 229.517 256V291.31C229.517 296.185 233.47 300.138 238.345 300.138Z" fill="#FFDC69"/>
<path d="M308.966 300.138H344.276C349.151 300.138 353.104 296.185 353.104 291.31V256C353.104 251.125 349.151 247.172 344.276 247.172H308.966C304.091 247.172 300.138 251.125 300.138 256V291.31C300.138 296.185 304.09 300.138 308.966 300.138ZM308.966 273.655C308.966 268.78 312.919 264.827 317.794 264.827H335.449C340.324 264.827 344.277 268.78 344.277 273.655C344.277 278.53 340.324 282.483 335.449 282.483H317.794C312.918 282.483 308.966 278.53 308.966 273.655Z" fill="white"/>
<path d="M167.724 300.138H203.034C207.909 300.138 211.862 296.185 211.862 291.31V256C211.862 251.125 207.909 247.172 203.034 247.172H167.724C162.849 247.172 158.896 251.125 158.896 256V291.31C158.897 296.185 162.849 300.138 167.724 300.138ZM167.724 273.655C167.724 268.78 171.677 264.827 176.552 264.827H194.207C199.082 264.827 203.035 268.78 203.035 273.655C203.035 278.53 199.082 282.483 194.207 282.483H176.552C171.677 282.483 167.724 278.53 167.724 273.655Z" fill="#468CBE"/>
<path d="M238.345 229.517H273.655C278.53 229.517 282.483 225.564 282.483 220.689V185.379C282.483 180.504 278.53 176.551 273.655 176.551H238.345C233.47 176.551 229.517 180.504 229.517 185.379V220.689C229.517 225.565 233.47 229.517 238.345 229.517ZM238.345 203.034C238.345 198.159 242.298 194.206 247.173 194.206H264.828C269.703 194.206 273.656 198.159 273.656 203.034C273.656 207.909 269.703 211.862 264.828 211.862H247.173C242.297 211.862 238.345 207.91 238.345 203.034Z" fill="#464655"/>
<path d="M308.966 229.517H344.276C349.151 229.517 353.104 225.564 353.104 220.689V185.379C353.104 180.504 349.151 176.551 344.276 176.551H308.966C304.091 176.551 300.138 180.504 300.138 185.379V220.689C300.138 225.565 304.09 229.517 308.966 229.517Z" fill="#FFA055"/>
<path d="M167.724 229.517H203.034C207.909 229.517 211.862 225.564 211.862 220.689V185.379C211.862 180.504 207.909 176.551 203.034 176.551H167.724C162.849 176.551 158.896 180.504 158.896 185.379V220.689C158.897 225.565 162.849 229.517 167.724 229.517ZM185.379 185.379C195.13 185.379 203.034 193.283 203.034 203.034C203.034 212.784 195.13 220.689 185.379 220.689C175.628 220.689 167.724 212.784 167.724 203.034C167.724 193.283 175.628 185.379 185.379 185.379Z" fill="#A0D778"/>
<path d="M238.345 158.897H273.655C278.53 158.897 282.483 154.944 282.483 150.069V114.759C282.483 109.884 278.53 105.931 273.655 105.931H238.345C233.47 105.931 229.517 109.884 229.517 114.759V150.069C229.517 154.944 233.47 158.897 238.345 158.897Z" fill="#FF6469"/>
<path d="M308.966 158.897H344.276C349.151 158.897 353.104 154.944 353.104 150.069V114.759C353.104 109.884 349.151 105.931 344.276 105.931H308.966C304.091 105.931 300.138 109.884 300.138 114.759V150.069C300.138 154.944 304.09 158.897 308.966 158.897ZM326.621 114.759C336.372 114.759 344.276 122.663 344.276 132.414C344.276 142.164 336.372 150.069 326.621 150.069C316.87 150.069 308.966 142.164 308.966 132.414C308.966 122.663 316.87 114.759 326.621 114.759Z" fill="#00DCCD"/>
<path d="M167.724 158.897H203.034C207.909 158.897 211.862 154.944 211.862 150.069V114.759C211.862 109.884 207.909 105.931 203.034 105.931H167.724C162.849 105.931 158.896 109.884 158.896 114.759V150.069C158.897 154.944 162.849 158.897 167.724 158.897Z" fill="#FFDC69"/>
<path d="M185.379 220.689C195.13 220.689 203.034 212.784 203.034 203.034C203.034 193.283 195.13 185.379 185.379 185.379C175.628 185.379 167.724 193.283 167.724 203.034C167.724 212.784 175.628 220.689 185.379 220.689Z" fill="#FFDC69"/>
<path d="M256 406.069C265.751 406.069 273.655 398.164 273.655 388.414C273.655 378.663 265.751 370.759 256 370.759C246.249 370.759 238.345 378.663 238.345 388.414C238.345 398.164 246.249 406.069 256 406.069Z" fill="#FFDC69"/>
<path d="M326.621 150.069C336.372 150.069 344.276 142.164 344.276 132.414C344.276 122.663 336.372 114.759 326.621 114.759C316.87 114.759 308.966 122.663 308.966 132.414C308.966 142.164 316.87 150.069 326.621 150.069Z" fill="#FF6469"/>
<path d="M247.172 211.862H264.827C269.702 211.862 273.655 207.909 273.655 203.034C273.655 198.159 269.702 194.206 264.827 194.206H247.172C242.297 194.206 238.344 198.159 238.344 203.034C238.345 207.91 242.297 211.862 247.172 211.862Z" fill="#468CBE"/>
<path d="M317.793 282.483H335.448C340.323 282.483 344.276 278.53 344.276 273.655C344.276 268.78 340.323 264.827 335.448 264.827H317.793C312.918 264.827 308.965 268.78 308.965 273.655C308.966 278.53 312.918 282.483 317.793 282.483Z" fill="#FF6469"/>
<path d="M176.552 282.483H194.207C199.082 282.483 203.035 278.53 203.035 273.655C203.035 268.78 199.082 264.827 194.207 264.827H176.552C171.677 264.827 167.724 268.78 167.724 273.655C167.724 278.53 171.677 282.483 176.552 282.483Z" fill="white"/>
<path d="M220.69 344.276C225.566 344.276 229.518 340.324 229.518 335.448C229.518 330.573 225.566 326.62 220.69 326.62C215.814 326.62 211.862 330.573 211.862 335.448C211.862 340.324 215.814 344.276 220.69 344.276Z" fill="#464655"/>
<path d="M256 344.276C260.876 344.276 264.828 340.324 264.828 335.448C264.828 330.573 260.876 326.62 256 326.62C251.124 326.62 247.172 330.573 247.172 335.448C247.172 340.324 251.124 344.276 256 344.276Z" fill="white"/>
<path d="M291.31 344.276C296.186 344.276 300.138 340.324 300.138 335.448C300.138 330.573 296.186 326.62 291.31 326.62C286.434 326.62 282.482 330.573 282.482 335.448C282.482 340.324 286.434 344.276 291.31 344.276Z" fill="white"/>
</svg>
