<svg id="Capa_1" enable-background="new 0 0 512 512" height="512" viewBox="0 0 512 512" width="512" xmlns="http://www.w3.org/2000/svg"><path d="m252.65 512h-232.65c-11.046 0-20-8.954-20-20v-472c0-11.046 8.954-20 20-20h232.65c11.046 0 20 8.954 20 20v472c0 11.046-8.954 20-20 20z" fill="#e4f6ff"/><path d="m43.301 274.732h186.049c5.523 0 10-4.477 10-10v-156.911c0-5.523-4.477-10-10-10h-186.049c-5.523 0-10 4.477-10 10v156.911c0 5.523 4.477 10 10 10z" fill="#a2f4c1"/><path d="m251.837 0h-18.732c11.495 0 20.813 9.318 20.813 20.813v470.374c0 11.495-9.318 20.813-20.813 20.813h18.732c11.495 0 20.813-9.318 20.813-20.813v-470.374c0-11.495-9.318-20.813-20.813-20.813z" fill="#d3effb"/><path d="m272.65 62.439h-272.65v-42.439c0-11.046 8.954-20 20-20h232.65c11.046 0 20 8.954 20 20z" fill="#90d8f9"/><path d="m251.837 0h-18.732c11.495 0 20.813 9.318 20.813 20.813v41.626h18.732v-41.626c0-11.495-9.318-20.813-20.813-20.813z" fill="#75cef9"/><path d="m372.605 249.671v-43.526c0-16.161-12.671-29.821-28.825-30.264-16.761-.46-30.492 12.99-30.492 29.647v69.203h-127.904c-16.161 0-29.821 12.671-30.264 28.825-.46 16.761 12.99 30.492 29.647 30.492h-19.155c-16.161 0-29.821 12.671-30.264 28.825-.46 16.761 12.99 30.492 29.647 30.492h19.772c-16.657 0-30.107 13.731-29.647 30.492.443 16.154 14.104 28.825 30.264 28.825h19.155c-16.657 0-30.107 13.731-29.647 30.492.444 16.155 14.104 28.826 30.265 28.826h139.767c16.227 0 32.205-3.994 46.523-11.631l52.339-27.914v-128.52l-53.212-51.734c-11.488-11.168-17.969-26.508-17.969-42.53z" fill="#f1d0a5"/><path d="m443.776 343.926-53.193-51.716c-11.493-11.174-17.978-26.522-17.978-42.552v-43.484c0-15.937-12.308-29.518-28.227-30.271-3.586-.17-7.035.308-10.253 1.31-.029.009-.029.05 0 .059 12.1 3.905 20.737 15.533 20.737 28.873v54.004c0 16.03 6.484 31.378 17.978 42.552l46.898 45.595c4.031 3.919 6.305 9.301 6.305 14.923v118.647c0 .023.025.038.046.027l17.681-9.43c.01-.005.016-.016.016-.027v-128.488c-.001-.008-.004-.016-.01-.022z" fill="#f1b986"/><path d="m454.087 512h47.611c5.69 0 10.302-4.612 10.302-10.302v-183.051c0-5.69-4.612-10.302-10.302-10.302h-47.611c-5.69 0-10.302 4.612-10.302 10.302v183.052c0 5.689 4.613 10.301 10.302 10.301z" fill="#e27a66"/><path d="m495.35 308.345v176.598c0 5.747-4.659 10.406-10.406 10.406h-41.158v6.349c0 5.69 4.612 10.302 10.302 10.302h47.611c5.69 0 10.302-4.612 10.302-10.302v-183.051c0-5.69-4.612-10.302-10.302-10.302z" fill="#dd544f"/><path d="m110.309 315.759h-77.008c-4.267 0-7.726-3.459-7.726-7.726s3.459-7.726 7.726-7.726h77.008c4.267 0 7.726 3.459 7.726 7.726s-3.459 7.726-7.726 7.726z" fill="#665e66"/><path d="m110.309 357.385h-77.008c-4.267 0-7.726-3.459-7.726-7.726s3.459-7.726 7.726-7.726h77.008c4.267 0 7.726 3.459 7.726 7.726s-3.459 7.726-7.726 7.726z" fill="#665e66"/><path d="m110.309 399.011h-77.008c-4.267 0-7.726-3.459-7.726-7.726s3.459-7.726 7.726-7.726h77.008c4.267 0 7.726 3.459 7.726 7.726s-3.459 7.726-7.726 7.726z" fill="#665e66"/><path d="m54.114 38.946h-20.813c-4.267 0-7.726-3.459-7.726-7.726s3.459-7.726 7.726-7.726h20.813c4.267 0 7.726 3.459 7.726 7.726s-3.459 7.726-7.726 7.726z" fill="#e27a66"/><path d="m239.344 264.543-91.126-78.239c-.017-.014-.017-.041 0-.055l91.126-78.239c-.062-5.637-4.645-10.188-10.296-10.188h-1.559l-91.14 78.251c-.014.012-.034.012-.047 0l-91.14-78.251h-1.559c-5.651 0-10.235 4.552-10.296 10.188l91.126 78.239c.017.014.017.041 0 .055l-91.126 78.239c.062 5.637 4.645 10.188 10.296 10.188h1.559l91.14-78.251c.014-.012.034-.012.047 0l91.14 78.251h1.559c5.651.001 10.234-4.551 10.296-10.188z" fill="#86f1a7"/><g fill="#f1b986"><path d="m216.225 326.32c0 4.265-3.461 7.726-7.726 7.726h-23.735c-11.229 0-21.005-6.243-26.033-15.453h49.768c4.264.001 7.726 3.462 7.726 7.727z"/><path d="m216.225 444.966c0 4.265-3.461 7.726-7.726 7.726h-4.337c.124-.01.258-.01.381-.01h-19.161c-11.291 0-21.366-6.191-26.548-15.442h49.665c4.264 0 7.726 3.461 7.726 7.726z"/><path d="m216.225 385.638c0 4.265-3.461 7.726-7.726 7.726h-43.505c-11.229 0-21.005-6.243-26.043-15.453h69.548c4.264.001 7.726 3.462 7.726 7.727z"/></g></svg>