<svg id="Capa_1" enable-background="new 0 0 512 512" height="512" viewBox="0 0 512 512" width="512" xmlns="http://www.w3.org/2000/svg" xmlns:xlink="http://www.w3.org/1999/xlink"><linearGradient id="SVGID_1_" gradientUnits="userSpaceOnUse" x1="27.58" x2="504.532" y1="397.549" y2="122.18"><stop offset="0" stop-color="#dcfdee" stop-opacity="0"/><stop offset=".6288" stop-color="#d2f3e4"/></linearGradient><linearGradient id="SVGID_2_" gradientUnits="userSpaceOnUse" x1="243.468" x2="243.468" y1="26.459" y2="481.78"><stop offset=".0028" stop-color="#ff7eb8" stop-opacity="0"/><stop offset="1" stop-color="#ff7eb8" stop-opacity=".6"/></linearGradient><g><g><path d="m4.896 332.379c17.448 172.871 292.417 167.142 420.803 136.265 82.47-19.834 87.596-59.472 86.106-144.001-.96-54.486 3.443-198.725-32.004-244.123-54.448-69.733-103.228-25.998-170.656-3.235-86.488 29.197-120.189-22.932-202.476-21.38-120.641 2.278-110.778 187.252-101.773 276.474z" fill="url(#SVGID_1_)"/></g><g><g><g><g><g><path d="m344.586 481.78h-202.235c-16.568 0-30-13.431-30-30v-395.321c0-16.569 13.432-30 30-30h202.235c16.568 0 30 13.431 30 30v395.321c0 16.569-13.432 30-30 30z" fill="#6583fe"/><path d="m374.588 329.94v121.84c0 1.04-.05 2.06-.15 3.07h-47.56c-5.52 0-10-4.48-10-10v-104.91c0-5.52 4.48-10 10-10z" fill="#4369fd"/><g><g><path d="m282.223 59.583h-56.52c-2.762 0-5-2.239-5-5s2.238-5 5-5h56.52c2.762 0 5 2.239 5 5s-2.238 5-5 5z" fill="#9fb0fe"/></g><circle cx="204.713" cy="54.583" fill="#9fb0fe" r="5"/></g></g><circle cx="243.468" cy="443.527" fill="#9fb0fe" r="24.336"/><path d="m349.184 410.148h-211.432c-2.761 0-5-2.238-5-5v-321.362c0-2.761 2.239-5 5-5h211.432c2.761 0 5 2.239 5 5v321.362c0 2.762-2.238 5-5 5z" fill="#fff"/></g><g><g><path d="m333.402 209.861h-77.035c-2.761 0-5-2.239-5-5v-110.408c0-2.761 2.239-5 5-5h77.035c2.761 0 5 2.239 5 5v110.408c0 2.762-2.238 5-5 5z" fill="#ff7eb8"/><g><g><path d="m282.887 239.175h-26.52c-2.762 0-5-2.239-5-5s2.238-5 5-5h26.52c2.762 0 5 2.239 5 5s-2.238 5-5 5z" fill="#d2deff"/></g><g><path d="m333.402 239.175h-6.52c-2.762 0-5-2.239-5-5s2.238-5 5-5h6.52c2.762 0 5 2.239 5 5s-2.238 5-5 5z" fill="#d2deff"/></g><g><path d="m335.902 257.675h-79.535c-2.762 0-5-2.239-5-5s2.238-5 5-5h79.535c2.762 0 5 2.239 5 5s-2.238 5-5 5z" fill="#d2deff"/></g><g><path d="m335.902 276.175h-79.535c-2.762 0-5-2.239-5-5s2.238-5 5-5h79.535c2.762 0 5 2.239 5 5s-2.238 5-5 5z" fill="#d2deff"/></g></g></g><g><path d="m228.069 164.861h-77.035c-2.762 0-5-2.239-5-5v-65.408c0-2.761 2.238-5 5-5h77.035c2.761 0 5 2.239 5 5v65.408c0 2.762-2.239 5-5 5z" fill="#01eca5"/><g><g><path d="m177.554 194.175h-26.52c-2.762 0-5-2.239-5-5s2.238-5 5-5h26.52c2.762 0 5 2.239 5 5s-2.239 5-5 5z" fill="#d2deff"/></g><g><path d="m228.069 194.175h-6.52c-2.762 0-5-2.239-5-5s2.238-5 5-5h6.52c2.762 0 5 2.239 5 5s-2.238 5-5 5z" fill="#d2deff"/></g><g><path d="m230.569 212.675h-79.535c-2.762 0-5-2.239-5-5s2.238-5 5-5h79.535c2.762 0 5 2.239 5 5s-2.238 5-5 5z" fill="#d2deff"/></g></g></g></g><g><g><path d="m338.402 410.148h-87.035v-110.973c0-2.761 2.239-5 5-5h77.035c2.761 0 5 2.239 5 5z" fill="#01eca5"/></g><g><path d="m228.069 349.583h-77.035c-2.762 0-5-2.239-5-5v-110.408c0-2.761 2.238-5 5-5h77.035c2.761 0 5 2.239 5 5v110.408c0 2.761-2.239 5-5 5z" fill="#8399fe"/><g><g><path d="m177.554 378.896h-26.52c-2.762 0-5-2.239-5-5s2.238-5 5-5h26.52c2.762 0 5 2.239 5 5s-2.239 5-5 5z" fill="#d2deff"/></g><g><path d="m228.069 378.896h-6.52c-2.762 0-5-2.239-5-5s2.238-5 5-5h6.52c2.762 0 5 2.239 5 5s-2.238 5-5 5z" fill="#d2deff"/></g><g><path d="m230.569 397.396h-79.535c-2.762 0-5-2.239-5-5s2.238-5 5-5h79.535c2.762 0 5 2.239 5 5s-2.238 5-5 5z" fill="#d2deff"/></g></g></g></g><path d="m344.586 481.78h-202.235c-16.568 0-30-13.431-30-30v-395.321c0-16.569 13.432-30 30-30h202.235c16.568 0 30 13.431 30 30v395.321c0 16.569-13.432 30-30 30z" fill="url(#SVGID_2_)"/><g><path d="m441.787 321.444v104.904c0 5.523-4.477 10-10 10h-104.904c-5.523 0-10-4.477-10-10v-104.904c0-5.523 4.477-10 10-10h104.904c5.523 0 10 4.477 10 10z" fill="#4369fd"/><circle cx="369.594" cy="384.835" fill="#ff7eb8" r="26.746"/><path d="m441.787 426.348v-43.383c-9.326-3.245-19.357-5.012-29.79-5.012-38.689 0-71.704 24.262-84.692 58.394h104.483c5.522.001 9.999-4.476 9.999-9.999z" fill="#01eca5"/><path d="m411.213 436.349h-84.33c-5.523 0-10-4.477-10-10v-26.108c9.798-6.396 21.493-10.109 34.058-10.109 28.86 0 53.152 19.596 60.272 46.217z" fill="#97ffd2"/></g></g><path d="m416.213 145.079c-2.762 0-5-2.238-5-5 0-3.309-2.691-6-6-6-2.762 0-5-2.238-5-5s2.238-5 5-5c3.309 0 6-2.691 6-6 0-2.762 2.238-5 5-5s5 2.238 5 5c0 3.309 2.691 6 6 6 2.762 0 5 2.238 5 5s-2.238 5-5 5c-3.309 0-6 2.691-6 6 0 2.761-2.238 5-5 5z" fill="#ff7eb8"/><path d="m75.069 233.988c-2.762 0-5-2.238-5-5 0-3.309-2.691-6-6-6-2.762 0-5-2.238-5-5s2.238-5 5-5c3.309 0 6-2.691 6-6 0-2.762 2.238-5 5-5s5 2.238 5 5c0 3.309 2.691 6 6 6 2.762 0 5 2.238 5 5s-2.238 5-5 5c-3.309 0-6 2.691-6 6 0 2.762-2.238 5-5 5z" fill="#ff7eb8"/><path d="m436.931 282.175c-2.762 0-5-2.238-5-5 0-3.309-2.691-6-6-6-2.762 0-5-2.238-5-5s2.238-5 5-5c3.309 0 6-2.692 6-6.001 0-2.762 2.238-5 5-5s5 2.238 5 5c0 3.309 2.691 6.001 6 6.001 2.762 0 5 2.238 5 5s-2.238 5-5 5c-3.309 0-6 2.691-6 6 0 2.762-2.239 5-5 5z" fill="#6583fe"/><path d="m406.213 88.523c-1.279 0-2.56-.488-3.535-1.465-1.953-1.952-1.953-5.118 0-7.07l10-10c1.951-1.953 5.119-1.953 7.07 0 1.953 1.952 1.953 5.118 0 7.07l-10 10c-.976.977-2.256 1.465-3.535 1.465z" fill="#6583fe"/><path d="m75.069 162.579c-1.279 0-2.56-.488-3.535-1.465-1.953-1.952-1.953-5.118 0-7.07l10-10c1.951-1.953 5.119-1.953 7.07 0 1.953 1.952 1.953 5.118 0 7.07l-10 10c-.975.976-2.255 1.465-3.535 1.465z" fill="#01eca5"/></g></g></g></svg>