<svg id="Color" enable-background="new 0 0 24 24" height="512" viewBox="0 0 24 24" width="512" xmlns="http://www.w3.org/2000/svg"><path d="m22.25 0h-20.5c-.965 0-1.75.785-1.75 1.75v2.5c0 .965.785 1.75 1.75 1.75h20.5c.965 0 1.75-.785 1.75-1.75v-2.5c0-.965-.785-1.75-1.75-1.75z" fill="#03a9f4"/><path d="m14.25 8h-12.5c-.96 0-1.75.79-1.75 1.75v12.5c0 .96.79 1.75 1.75 1.75h12.5c.96 0 1.75-.79 1.75-1.75v-12.5c0-.96-.79-1.75-1.75-1.75z" fill="#eceff1"/><circle cx="8" cy="13.5" fill="#03a9f4" r="1.5"/><path d="m11 18.25c0 .41-.34.75-.75.75h-4.5c-.41 0-.75-.34-.75-.75v-.37c0-1.04.94-1.88 2.1-1.88h1.8c1.16 0 2.1.84 2.1 1.88z" fill="#03a9f4"/><g fill="#90a4ae"><circle cx="21" cy="11" r="3"/><path d="m23.25 19h-4.5c-.414 0-.75.336-.75.75s.336.75.75.75h4.5c.414 0 .75-.336.75-.75s-.336-.75-.75-.75z"/><path d="m23.25 22h-4.5c-.414 0-.75.336-.75.75s.336.75.75.75h4.5c.414 0 .75-.336.75-.75s-.336-.75-.75-.75z"/><path d="m23.25 16h-4.5c-.414 0-.75.336-.75.75s.336.75.75.75h4.5c.414 0 .75-.336.75-.75s-.336-.75-.75-.75z"/></g></svg>